<svg xmlns="http://www.w3.org/2000/svg" id="canvas" viewBox="728.285 319.473 412.571 228.709"><path d="M 731.84,455.39 C 730.75 457.67, 731.58 460.73, 731.71 466.77 C 731.85 472.80, 732.01 477.26, 732.52 485.56 C 733.03 493.86, 733.33 499.82, 734.27 508.27 C 735.21 516.72, 735.87 521.27, 737.22 527.81 C 738.57 534.35, 738.58 537.55, 741.00 540.96 C 743.42 544.37, 746.39 545.89, 749.32 544.87 C 752.25 543.86, 753.35 541.42, 755.67 535.90 C 757.99 530.37, 758.59 526.02, 760.91 517.25 C 763.23 508.49, 764.53 502.36, 767.26 492.07 C 770.00 481.78, 771.61 475.26, 774.59 465.82 C 777.58 456.37, 779.53 451.10, 782.19 444.86 C 784.85 438.61, 786.86 436.49, 787.88 434.59 C 788.89 432.69, 786.92 432.67, 787.27 435.35 C 787.62 438.04, 788.74 441.25, 789.61 448.02 C 790.48 454.79, 790.71 460.29, 791.61 469.20 C 792.51 478.11, 792.94 484.10, 794.12 492.57 C 795.31 501.03, 795.68 505.48, 797.53 511.51 C 799.38 517.54, 800.10 520.62, 803.36 522.73 C 806.62 524.83, 809.98 524.48, 813.83 522.04 C 817.69 519.60, 819.05 516.63, 822.63 510.52 C 826.21 504.41, 828.04 499.71, 831.73 491.47 C 835.42 483.24, 837.64 477.24, 841.07 469.33 C 844.50 461.41, 846.80 456.73, 848.87 451.91 C 850.93 447.09, 851.07 445.50, 851.40 445.22 C 851.74 444.95, 850.56 446.00, 850.56 450.55 C 850.57 455.09, 850.97 459.94, 851.44 467.94 C 851.90 475.93, 851.95 481.85, 852.90 490.52 C 853.86 499.20, 854.28 504.32, 856.23 511.31 C 858.17 518.29, 859.06 521.76, 862.63 525.45 C 866.20 529.14, 869.20 530.56, 874.06 529.76 C 878.92 528.95, 881.71 526.61, 886.94 521.41 C 892.17 516.22, 894.83 512.02, 900.21 503.76 C 905.58 495.50, 908.60 489.78, 913.81 480.11 C 919.02 470.43, 921.88 464.13, 926.24 455.38 C 930.61 446.63, 933.05 441.61, 935.62 436.37 C 938.19 431.13, 938.62 429.61, 939.10 429.17 C 939.57 428.73, 938.08 429.74, 937.98 434.16 C 937.88 438.58, 938.07 443.14, 938.59 451.28 C 939.10 459.42, 939.29 465.47, 940.55 474.86 C 941.82 484.25, 942.67 489.87, 944.92 498.23 C 947.16 506.60, 948.28 510.86, 951.77 516.68 C 955.25 522.51, 957.46 525.24, 962.35 527.35 C 967.24 529.46, 970.70 529.31, 976.23 527.23 C 981.77 525.16, 984.59 522.93, 990.04 516.99 C 995.49 511.05, 998.18 506.83, 1003.48 497.52 C 1008.79 488.22, 1011.57 482.18, 1016.55 470.46 C 1021.54 458.75, 1024.15 451.84, 1028.41 438.95 C 1032.68 426.05, 1034.65 418.66, 1037.87 406.01 C 1041.10 393.35, 1042.52 386.71, 1044.52 375.67 C 1046.52 364.64, 1047.12 359.28, 1047.88 350.83 C 1048.65 342.39, 1048.97 338.83, 1048.35 333.44 C 1047.72 328.05, 1047.26 325.72, 1044.76 323.91 C 1042.25 322.09, 1038.86 321.75, 1035.82 324.36 C 1032.79 326.97, 1031.98 329.93, 1029.58 336.95 C 1027.18 343.97, 1025.87 348.65, 1023.83 359.45 C 1021.78 370.25, 1020.66 377.32, 1019.36 390.94 C 1018.06 404.56, 1017.34 412.91, 1017.33 427.55 C 1017.33 442.18, 1017.50 450.48, 1019.35 464.13 C 1021.19 477.77, 1022.53 484.82, 1026.57 495.78 C 1030.61 506.73, 1033.25 511.68, 1039.53 518.89 C 1045.82 526.09, 1049.95 528.64, 1057.99 531.80 C 1066.03 534.95, 1070.87 535.20, 1079.74 534.66 C 1088.62 534.11, 1094.17 531.97, 1102.36 529.06 C 1110.54 526.14, 1114.60 523.54, 1120.65 520.10 C 1126.70 516.65, 1129.17 514.63, 1132.58 511.84 C 1136.00 509.06, 1137.12 507.83, 1137.70 506.16 C 1138.28 504.49, 1137.18 503.26, 1135.48 503.50 C 1133.78 503.73, 1132.70 504.92, 1129.20 507.33 C 1125.69 509.74, 1123.63 512.03, 1117.95 515.53 C 1112.26 519.02, 1108.47 521.78, 1100.76 524.79 C 1093.06 527.81, 1087.74 529.88, 1079.45 530.60 C 1071.15 531.31, 1066.79 531.15, 1059.30 528.37 C 1051.81 525.59, 1048.00 523.43, 1042.01 516.70 C 1036.02 509.98, 1033.33 505.33, 1029.35 494.74 C 1025.37 484.15, 1023.94 477.19, 1022.11 463.75 C 1020.27 450.32, 1020.08 442.05, 1020.17 427.55 C 1020.27 413.06, 1021.03 404.73, 1022.57 391.28 C 1024.12 377.83, 1025.46 370.78, 1027.91 360.31 C 1030.37 349.84, 1032.23 345.21, 1034.84 338.93 C 1037.46 332.65, 1039.67 331.21, 1040.97 328.91 C 1042.28 326.60, 1040.94 326.37, 1041.37 327.40 C 1041.80 328.42, 1042.59 329.40, 1043.11 334.04 C 1043.63 338.67, 1044.32 342.35, 1043.97 350.57 C 1043.61 358.79, 1043.13 364.18, 1041.34 375.12 C 1039.55 386.07, 1038.16 392.71, 1035.01 405.29 C 1031.85 417.86, 1029.88 425.23, 1025.58 438.00 C 1021.28 450.77, 1018.62 457.64, 1013.51 469.14 C 1008.41 480.65, 1005.46 486.61, 1000.07 495.52 C 994.67 504.43, 991.70 508.37, 986.54 513.70 C 981.39 519.02, 978.70 520.42, 974.29 522.16 C 969.88 523.90, 968.16 523.99, 964.51 522.38 C 960.86 520.78, 959.05 519.21, 956.04 514.14 C 953.03 509.06, 951.54 505.01, 949.45 497.03 C 947.36 489.05, 946.61 483.44, 945.57 474.23 C 944.53 465.02, 944.61 459.12, 944.25 450.97 C 943.89 442.83, 944.91 438.47, 943.77 433.52 C 942.64 428.57, 941.06 426.13, 938.56 426.23 C 936.06 426.33, 934.49 428.56, 931.27 434.02 C 928.04 439.47, 926.64 444.69, 922.43 453.52 C 918.22 462.35, 915.43 468.63, 910.23 478.17 C 905.03 487.71, 901.81 493.33, 896.41 501.23 C 891.02 509.13, 887.93 513.08, 883.24 517.66 C 878.55 522.25, 876.24 523.36, 872.96 524.17 C 869.67 524.97, 869.13 524.54, 866.82 521.69 C 864.51 518.83, 863.09 516.24, 861.41 509.90 C 859.73 503.55, 859.22 498.41, 858.42 489.96 C 857.61 481.50, 857.75 475.66, 857.38 467.63 C 857.02 459.59, 857.81 454.87, 856.58 449.77 C 855.34 444.68, 853.77 442.24, 851.22 442.15 C 848.66 442.05, 846.79 444.28, 843.79 449.30 C 840.79 454.32, 839.61 459.26, 836.22 467.24 C 832.83 475.23, 830.57 481.19, 826.82 489.23 C 823.08 497.27, 820.86 501.91, 817.48 507.44 C 814.11 512.98, 812.02 514.85, 809.94 516.91 C 807.86 518.98, 808.51 519.17, 807.09 517.76 C 805.68 516.36, 804.46 515.06, 802.88 509.88 C 801.31 504.70, 800.37 500.09, 799.22 491.85 C 798.07 483.61, 797.87 477.60, 797.13 468.69 C 796.40 459.77, 796.41 454.44, 795.55 447.28 C 794.69 440.12, 795.13 436.25, 792.81 432.91 C 790.50 429.56, 787.00 428.54, 783.97 430.56 C 780.95 432.58, 780.36 436.21, 777.68 443.01 C 775.00 449.81, 773.49 454.99, 770.57 464.57 C 767.65 474.15, 766.00 480.66, 763.06 490.91 C 760.13 501.16, 758.54 507.27, 755.90 515.81 C 753.25 524.35, 751.61 528.68, 749.84 533.62 C 748.06 538.56, 747.63 539.66, 747.02 540.52 C 746.41 541.38, 747.62 540.71, 746.78 537.92 C 745.94 535.13, 744.26 532.62, 742.82 526.57 C 741.38 520.52, 740.54 515.93, 739.57 507.66 C 738.59 499.40, 738.38 493.46, 737.94 485.25 C 737.50 477.04, 737.54 472.61, 737.38 466.63 C 737.22 460.65, 738.27 457.62, 737.16 455.37 C 736.05 453.12, 732.93 453.11, 731.84 455.39" style="stroke: black; fill: black;"/></svg>