<?xml version="1.0" encoding="UTF-8" standalone="no"?>
<!DOCTYPE svg PUBLIC "-//W3C//DTD SVG 1.1//EN" "http://www.w3.org/Graphics/SVG/1.1/DTD/svg11.dtd">
<svg width="100%" height="100%" viewBox="0 0 300 300" version="1.1" xmlns="http://www.w3.org/2000/svg" xmlns:xlink="http://www.w3.org/1999/xlink" xml:space="preserve" xmlns:serif="http://www.serif.com/" style="fill-rule:evenodd;clip-rule:evenodd;stroke-linejoin:round;stroke-miterlimit:2;">
    <g transform="matrix(0.595247,0,0,0.595247,-27.1721,-22.7031)">
        <path d="M389.867,471.477C386.176,465.652 379.289,465.012 374.469,459.91C369.645,454.805 360.145,452.152 354.566,447.984C352.203,446.223 350.543,444.188 348.961,442.195C344.617,442.504 340.285,442.523 336.082,442.176C335.047,442.09 334.02,441.977 333.008,441.836C334.941,442.477 336.668,443.012 337.914,443.543C344.621,446.41 349.855,452.996 356.227,457.371C362.598,461.746 372.871,464.77 378.383,470.359C383.891,475.953 391.371,477.199 395.496,483.707C396.391,485.121 397.23,486.527 398.016,487.93C396.121,482.605 393.418,477.082 389.867,471.477ZM205.422,471.477C201.871,477.082 199.168,482.605 197.27,487.93C198.059,486.527 198.898,485.121 199.793,483.707C203.914,477.199 211.395,475.953 216.906,470.359C222.418,464.77 232.691,461.746 239.063,457.371C245.434,452.996 250.668,446.41 257.371,443.543C258.621,443.012 260.344,442.477 262.277,441.836C261.266,441.977 260.242,442.09 259.207,442.176C255.004,442.523 250.668,442.504 246.328,442.195C244.746,444.188 243.086,446.223 240.723,447.984C235.145,452.152 225.645,454.805 220.82,459.91C215.996,465.012 209.113,465.652 205.422,471.477ZM297.133,449.188L298.098,449.188C300.754,449.188 302.926,447.016 302.926,444.359L302.926,417.152L301.93,417.727L301.93,443.758C301.93,446.414 299.973,448.59 297.586,448.59L296.715,448.59C296.273,448.59 295.848,448.516 295.445,448.375L296.422,448.375C298.906,448.375 300.941,446.117 300.941,443.355L300.941,418.297L293.785,422.418C293.301,422.699 292.805,422.895 292.305,423.008L292.305,444.359C292.305,447.016 294.477,449.188 297.133,449.188ZM288.57,413.121C270.004,402.266 257.738,404.609 247.07,410.977C236.004,417.582 226.66,428.516 213.781,433.551C226.035,438.43 243.328,442.391 258.746,441.023C271.961,439.848 283.797,434.758 289.91,422.977C288.637,422.637 287.488,421.793 286.719,420.52C286.633,420.379 286.551,420.234 286.48,420.094C269.34,429.461 248.098,433.859 228.43,431.625C247.965,432.738 269.438,427.195 285.867,417.445C285.961,415.75 286.988,414.238 288.57,413.121ZM306.059,415.348C322.844,426.391 345.961,432.816 366.859,431.625C345.426,434.063 322.129,428.617 304.309,417.461L304.309,420.703C310.027,434.109 322.508,439.773 336.539,441.023C351.961,442.391 369.254,438.43 381.508,433.551C368.629,428.516 359.281,417.582 348.219,410.977C338.035,404.898 326.402,402.488 309.219,411.715C308.902,413.023 308.074,414.188 306.789,414.93L306.059,415.348ZM361.715,418.848C362.305,416.742 362.926,414.746 363.57,412.848C377.594,402.953 382.25,393.414 383.102,383.828C386.75,381.25 390.617,379.395 394.625,377.953C408.203,373.07 423.41,372.902 437.359,365.262C430.84,379.672 419.602,397.855 406.152,410.445C394.969,420.918 382.254,427.523 369.465,424.871C367.816,423.652 366.199,422.398 364.598,421.133C386.5,413.496 408.727,397.152 424.148,376.758C407.609,396.605 383.563,412.582 361.781,418.902C361.758,418.883 361.734,418.867 361.715,418.848ZM233.574,418.848C233.551,418.867 233.531,418.883 233.508,418.902C211.727,412.582 187.676,396.605 171.141,376.758C186.563,397.152 208.789,413.496 230.691,421.133C229.09,422.398 227.473,423.652 225.824,424.871C213.035,427.523 200.32,420.918 189.133,410.445C175.688,397.855 164.445,379.672 157.93,365.262C171.879,372.902 187.086,373.07 200.664,377.953C204.672,379.395 208.539,381.25 212.188,383.828C213.039,393.414 217.695,402.953 231.715,412.848C232.363,414.746 232.984,416.742 233.574,418.848ZM289.164,414.328L302.105,406.871C303.93,405.82 306.285,406.453 307.336,408.277L307.473,408.52C308.527,410.344 307.895,412.699 306.066,413.75L293.125,421.207C291.301,422.258 288.949,421.625 287.895,419.801L287.758,419.559C287.41,418.961 287.25,418.301 287.25,417.652C287.27,417.641 287.289,417.629 287.309,417.617L300.25,410.164C302.074,409.109 304.43,409.742 305.48,411.57L305.621,411.809C305.727,411.992 305.813,412.184 305.883,412.375C305.863,411.773 305.699,411.168 305.379,410.613L305.242,410.371C304.188,408.547 301.836,407.914 300.008,408.965L287.559,416.141C287.875,415.402 288.418,414.758 289.164,414.328ZM238.41,414.613C217.527,402.516 213.199,390.746 213.625,378.777C214.047,366.805 219.215,354.629 217.324,341.719C227.813,350.281 239.992,363.492 246.449,377.156C251.754,388.395 253.188,399.945 246.625,409.473C246.594,409.488 246.566,409.508 246.535,409.523C244.781,410.559 243.066,411.695 241.375,412.898C242.297,393.613 235.586,372.027 222.891,354.941C234.707,372.789 240.453,395.746 238.41,414.613ZM356.879,414.613C354.836,395.746 360.582,372.789 372.398,354.941C359.703,372.027 352.992,393.613 353.91,412.898C352.219,411.695 350.508,410.559 348.754,409.523C348.723,409.508 348.691,409.488 348.664,409.473C342.102,399.945 343.535,388.395 348.84,377.156C355.297,363.492 367.477,350.281 377.965,341.719C376.07,354.629 381.242,366.805 381.664,378.777C382.086,390.746 377.758,402.516 356.879,414.613ZM288.145,403.047C292.977,400.262 297.813,397.477 302.645,394.691C304.691,393.512 307.328,394.223 308.508,396.27C308.559,396.359 308.609,396.449 308.664,396.539C309.84,398.582 309.133,401.223 307.086,402.398C302.254,405.184 297.418,407.969 292.586,410.754C290.539,411.934 287.902,411.223 286.723,409.18C286.672,409.09 286.621,409 286.566,408.91C286.137,408.156 285.957,407.324 286.008,406.516C286.098,406.453 286.191,406.395 286.289,406.34C291.125,403.555 295.957,400.77 300.789,397.984C302.836,396.805 305.473,397.512 306.652,399.559C306.703,399.648 306.758,399.738 306.809,399.828C306.938,400.055 307.047,400.293 307.129,400.531C307.094,399.883 306.914,399.23 306.57,398.633C306.516,398.543 306.465,398.453 306.414,398.363C305.328,396.48 303.008,395.73 301.051,396.539C297.43,398.625 293.813,400.711 290.191,402.797C290.016,402.898 289.84,402.984 289.66,403.063C288.578,403.684 287.496,404.309 286.41,404.934C286.773,404.164 287.359,403.5 288.145,403.047ZM318.781,405.488C319.098,390.02 323.828,373.113 332.336,359.129C322.652,373.258 317.074,390.223 316.359,406.25C314.082,407.031 311.703,408.016 309.211,409.227C309.098,408.766 308.926,408.305 308.688,407.859C308.453,407.422 308.18,407.023 307.859,406.672C307.551,405.793 307.297,404.902 307.09,404C307.289,403.887 307.484,403.77 307.684,403.652C310.559,401.945 311.355,398.328 309.688,395.547C308.84,394.141 307.891,393.316 306.855,392.922C306.879,392.793 306.898,392.66 306.922,392.527L308.293,391.738C311.508,389.883 312.883,385.836 310.84,382.715C310.621,382.383 310.391,382.078 310.148,381.801C310.172,381.742 310.195,381.688 310.219,381.633C315.98,368.094 327.348,354.781 337.25,346.055C335.91,358.688 341.43,370.34 342.309,381.969C342.867,389.355 341.551,396.734 335.422,404.352C330.473,403.48 325.02,403.691 318.781,405.488ZM276.508,405.488C270.27,403.691 264.813,403.48 259.867,404.352C253.738,396.734 252.422,389.355 252.98,381.969C253.859,370.34 259.379,358.688 258.039,346.055C267.188,354.121 277.594,366.102 283.664,378.559C282.043,380.582 281.484,383.168 283.066,385.906C284.082,387.664 285.652,388.789 287.441,389.195L286.938,389.484C283.738,391.328 282.438,395.113 284.27,398.301C285.242,399.992 286.695,401.016 288.301,401.363L287.91,401.59C285.242,403.129 284.051,406.031 284.98,408.703C282.883,407.727 280.867,406.914 278.93,406.25C278.211,390.223 272.637,373.258 262.953,359.129C271.461,373.113 276.188,390.02 276.508,405.488ZM287.125,390.969C292.48,387.883 297.832,384.801 303.188,381.715C305.453,380.41 308.375,381.195 309.68,383.461C309.738,383.559 309.793,383.66 309.852,383.758C311.156,386.023 310.371,388.945 308.105,390.254C302.75,393.336 297.398,396.422 292.043,399.508C289.777,400.813 286.855,400.027 285.551,397.762C285.496,397.66 285.438,397.563 285.379,397.461C284.859,396.559 284.672,395.555 284.777,394.586C284.934,394.469 285.098,394.359 285.27,394.262C290.625,391.176 295.977,388.09 301.332,385.004C303.598,383.699 306.52,384.484 307.824,386.75C307.883,386.852 307.938,386.949 307.996,387.051C308.152,387.324 308.277,387.605 308.375,387.891C308.328,387.195 308.129,386.496 307.758,385.855C307.699,385.754 307.641,385.656 307.586,385.555C306.516,383.695 304.355,382.836 302.363,383.305C298.125,385.746 293.887,388.188 289.648,390.633C289.223,390.875 288.773,391.055 288.32,391.172C287.301,391.754 286.285,392.34 285.27,392.926C285.672,392.133 286.301,391.445 287.125,390.969ZM286.105,377.973C291.98,374.59 297.855,371.203 303.727,367.82C306.215,366.387 309.418,367.25 310.852,369.734C310.914,369.844 310.977,369.953 311.039,370.063C312.473,372.551 311.609,375.754 309.125,377.188C303.25,380.57 297.379,383.957 291.504,387.34C289.02,388.773 285.813,387.91 284.379,385.426C284.316,385.316 284.254,385.207 284.191,385.098C283.586,384.047 283.391,382.863 283.555,381.746C283.77,381.566 284.004,381.406 284.25,381.266C290.125,377.879 296,374.496 301.871,371.109C304.359,369.68 307.563,370.539 308.996,373.027C309.059,373.137 309.121,373.246 309.188,373.355C309.367,373.668 309.512,373.996 309.621,374.332C309.563,373.586 309.344,372.844 308.945,372.156C308.883,372.047 308.82,371.938 308.758,371.828C307.59,369.801 305.242,368.855 303.066,369.352C298.414,372.031 293.762,374.715 289.105,377.395C288.629,377.668 288.129,377.867 287.617,377.992C286.457,378.66 285.297,379.328 284.137,379.996C284.582,379.176 285.246,378.469 286.105,377.973ZM397.207,375.34C390.527,361.156 388.48,341.918 392.324,324.504C387.449,342.098 388.551,361.18 394.895,376.105C394.609,376.207 394.328,376.309 394.043,376.41C393.359,376.66 392.684,376.922 392.008,377.191C382.164,372.164 379.309,361.813 380.188,350.215C381.18,337.133 386.922,322.465 392.738,312.074C395.188,323.008 403.098,330.949 407.121,340.344C410.906,349.18 411.25,359.301 400.379,374.406C399.313,374.699 398.258,375.008 397.207,375.34ZM198.082,375.34C197.031,375.008 195.973,374.699 194.91,374.406C184.039,359.301 184.383,349.18 188.168,340.344C192.191,330.949 200.102,323.008 202.551,312.074C208.367,322.465 214.109,337.133 215.102,350.215C215.98,361.813 213.125,372.164 203.277,377.191C202.605,376.922 201.926,376.66 201.246,376.41C200.961,376.309 200.676,376.207 200.395,376.105C206.738,361.18 207.84,342.098 202.965,324.504C206.809,341.918 204.762,361.156 198.082,375.34ZM285.086,363.906C291.48,360.223 297.875,356.539 304.27,352.855C306.977,351.297 310.465,352.234 312.023,354.941C312.09,355.059 312.16,355.176 312.23,355.297C313.789,358.004 312.852,361.492 310.145,363.051C303.75,366.734 297.355,370.418 290.961,374.102C288.258,375.664 284.766,374.723 283.207,372.02C283.141,371.898 283.07,371.781 283.004,371.66C282.313,370.461 282.109,369.105 282.34,367.836C282.609,367.598 282.91,367.383 283.234,367.199C289.625,363.516 296.02,359.828 302.414,356.145C305.121,354.586 308.609,355.523 310.168,358.23C310.238,358.352 310.305,358.469 310.375,358.59C310.582,358.949 310.742,359.324 310.863,359.703C310.793,358.91 310.555,358.121 310.133,357.391C310.066,357.273 309.996,357.152 309.93,357.035C308.543,354.633 305.637,353.625 303.109,354.52C298.262,357.313 293.414,360.105 288.566,362.898C288.25,363.078 287.926,363.23 287.594,363.352C286.066,364.23 284.535,365.113 283.008,365.992C283.488,365.152 284.191,364.422 285.086,363.906ZM185.684,343.117C184.77,346.035 184.262,349.121 184.387,352.48C167.004,349 148.453,339.141 135.105,325.617C148.219,340.418 166.516,351.133 184.609,355.141C184.766,356.309 184.996,357.512 185.309,358.754C173.781,364.27 161.938,360.34 151.445,352.352C139.586,343.324 129.457,329.117 123.477,317.508C135.625,322.156 148.645,320.117 160.395,322.418C170.082,324.313 178.91,329.156 185.684,343.117ZM409.605,343.117C416.379,329.156 425.207,324.313 434.895,322.418C446.645,320.117 459.66,322.156 471.813,317.508C465.828,329.117 455.703,343.324 443.844,352.352C433.352,360.34 421.504,364.27 409.977,358.754C410.293,357.512 410.523,356.309 410.68,355.141C428.77,351.133 447.07,340.418 460.184,325.617C446.836,339.141 428.281,349 410.902,352.48C411.027,349.121 410.52,346.035 409.605,343.117ZM284.066,348.582C290.98,344.598 297.895,340.613 304.809,336.629C307.734,334.945 311.508,335.957 313.195,338.883C313.27,339.012 313.344,339.141 313.418,339.27C315.105,342.195 314.09,345.969 311.164,347.656C304.25,351.641 297.336,355.625 290.422,359.605C287.496,361.293 283.723,360.277 282.035,357.352C281.961,357.223 281.887,357.094 281.813,356.965C281.035,355.617 280.836,354.09 281.125,352.668C281.453,352.371 281.816,352.102 282.215,351.871C289.129,347.887 296.043,343.906 302.957,339.922C305.883,338.234 309.652,339.25 311.34,342.176C311.414,342.305 311.488,342.434 311.563,342.563C311.797,342.965 311.977,343.387 312.109,343.816C312.027,342.977 311.77,342.141 311.324,341.363C311.25,341.234 311.176,341.105 311.102,340.98C309.414,338.055 305.641,337.039 302.715,338.723C295.801,342.707 288.887,346.691 281.973,350.676C281.941,350.691 281.914,350.711 281.883,350.73C282.402,349.863 283.137,349.117 284.066,348.582ZM283.051,331.746C290.484,327.461 297.918,323.18 305.352,318.895C308.496,317.082 312.555,318.176 314.367,321.32C314.445,321.457 314.527,321.598 314.605,321.734C316.418,324.883 315.328,328.938 312.184,330.75C304.746,335.035 297.313,339.316 289.879,343.602C286.734,345.414 282.676,344.324 280.863,341.176C280.785,341.039 280.703,340.902 280.625,340.762C279.762,339.266 279.559,337.563 279.918,335.996C280.297,335.633 280.723,335.309 281.195,335.039C288.629,330.754 296.063,326.469 303.496,322.188C306.645,320.375 310.699,321.465 312.512,324.613C312.59,324.75 312.672,324.887 312.75,325.027C313.012,325.477 313.207,325.941 313.352,326.418C313.258,325.531 312.984,324.648 312.512,323.828C312.434,323.691 312.352,323.555 312.273,323.414C310.461,320.27 306.402,319.176 303.258,320.992C295.824,325.273 288.391,329.559 280.953,333.84C280.887,333.879 280.824,333.918 280.758,333.957C281.313,333.07 282.082,332.301 283.051,331.746ZM418.316,328.465C414.477,316.414 414.031,301.828 417.582,288.777C413.078,302.313 412.895,317.246 416.695,329.934C415.602,330.992 414.535,332.164 413.492,333.461C406.449,328.188 404.672,319.625 405.773,310.367C407.117,299.066 412.746,286.73 418.313,278.074C418.344,278.066 418.375,278.059 418.406,278.055C420.258,287.723 427.051,295.195 430.328,303.652C432.445,309.109 433.09,314.98 429.996,322.113C425.898,323.391 421.98,325.352 418.316,328.465ZM176.969,328.465C173.305,325.352 169.387,323.391 165.293,322.113C162.195,314.98 162.844,309.109 164.957,303.652C168.234,295.195 175.031,287.723 176.879,278.055C176.91,278.059 176.945,278.066 176.977,278.074C182.539,286.73 188.172,299.066 189.516,310.367C190.617,319.625 188.84,328.188 181.793,333.461C180.754,332.164 179.684,330.992 178.594,329.934C182.395,317.246 182.207,302.313 177.707,288.777C181.258,301.828 180.813,316.414 176.969,328.465ZM306.891,315.648L289.34,325.762C285.973,327.699 281.633,326.531 279.691,323.168L279.438,322.723C278.488,321.078 278.285,319.203 278.711,317.488C279.141,317.059 279.629,316.684 280.176,316.367L281.422,315.648L306.891,315.648ZM429.805,299.473C432.043,284.801 438.926,277.723 447.512,273.07C458.098,267.336 471.273,265.285 481.504,257.223C479.406,269.945 474.137,286.375 465.566,298.461C457.66,309.617 446.938,317.078 433.305,314.512C433.375,313.602 433.391,312.707 433.355,311.828C449.988,302.652 464.719,286.699 472.867,268.379C464.133,285.434 449.012,300.57 433.078,309.051C432.762,307.086 432.215,305.195 431.512,303.348C431.012,302.039 430.434,300.75 429.805,299.473ZM165.484,299.473C164.855,300.75 164.277,302.039 163.777,303.348C163.074,305.195 162.527,307.086 162.211,309.051C146.273,300.57 131.156,285.434 122.422,268.379C130.57,286.699 145.301,302.652 161.934,311.828C161.898,312.707 161.914,313.602 161.984,314.512C148.348,317.078 137.629,309.617 129.719,298.461C121.152,286.375 115.883,269.945 113.785,257.223C124.016,265.285 137.188,267.336 147.777,273.07C156.359,277.723 163.246,284.801 165.484,299.473ZM297.645,170.211L335.336,197.594L373.027,224.98L358.633,269.289L344.234,313.602L251.055,313.602L236.656,269.289L222.258,224.98L259.953,197.594L297.645,170.211ZM297.645,177.477L331.883,202.352L366.117,227.227L353.043,267.473L339.965,307.723L255.324,307.723L242.246,267.473L229.168,227.227L297.645,177.477ZM421.633,277.305C424.633,281.043 427.945,284.426 431.508,287.363C431.32,287.758 431.137,288.16 430.961,288.57C428.238,288.695 425.73,288.457 423.426,287.898C421.727,284.719 420.211,281.426 419.273,277.875C420.063,277.703 420.848,277.512 421.633,277.305ZM173.656,277.305C174.441,277.512 175.227,277.703 176.016,277.875C175.078,281.426 173.559,284.719 171.863,287.898C169.559,288.457 167.051,288.695 164.328,288.57C164.148,288.16 163.969,287.758 163.781,287.363C167.34,284.426 170.652,281.043 173.656,277.305ZM432.703,285.066C429.602,282.617 426.633,279.793 423.863,276.672C428.301,275.313 432.629,273.402 436.688,271.004C436.637,273.973 436.258,277.262 435.488,280.941C434.488,282.199 433.555,283.566 432.703,285.066ZM162.586,285.066C161.73,283.566 160.801,282.199 159.797,280.941C159.031,277.262 158.652,273.973 158.598,271.004C162.66,273.402 166.988,275.313 171.422,276.672C168.652,279.793 165.688,282.617 162.586,285.066ZM416.957,278.324C416.012,279.891 415.078,281.539 414.172,283.254C412.684,282.027 411.328,280.617 410.102,279.055C412.379,278.965 414.672,278.719 416.957,278.324ZM178.332,278.324C180.617,278.719 182.91,278.965 185.188,279.055C183.961,280.617 182.605,282.027 181.117,283.254C180.211,281.539 179.277,279.891 178.332,278.324ZM228.621,251.184C221.008,259.781 213.172,267.461 205.32,273.543C193.84,277.801 171.723,279.805 155.25,266.176C178.992,262.398 203.738,244.117 220.645,226.633L224.285,237.844C211.426,251.609 197.617,261.262 186.477,267.258C196.801,265.203 211.77,254.137 225.18,240.59L228.621,251.184ZM370.109,240.59C383.52,254.137 398.488,265.203 408.813,267.258C397.668,261.262 383.859,251.613 371.004,237.844L374.645,226.633C391.547,244.117 416.297,262.398 440.039,266.176C423.566,279.805 401.449,277.801 389.965,273.543C382.117,267.461 374.281,259.781 366.668,251.184L370.109,240.59ZM154.184,275.445C152.441,274.102 150.594,272.93 148.664,271.871C148.609,271.84 148.555,271.813 148.5,271.781C146.664,267.914 145.09,263.797 143.809,259.527C148.289,260.754 153.012,261.52 158.066,261.801C157.855,262.547 157.672,263.316 157.52,264.117C155.141,264.605 152.766,265.027 150.629,265.367C152.617,267.039 154.715,268.574 156.906,269.969C156.895,270.383 156.891,270.801 156.891,271.227C156.082,272.594 155.184,274 154.184,275.445ZM441.105,275.445C440.105,274 439.207,272.594 438.395,271.227C438.398,270.801 438.395,270.383 438.383,269.969C440.57,268.574 442.672,267.039 444.66,265.367C442.52,265.027 440.145,264.605 437.77,264.117C437.613,263.316 437.434,262.547 437.223,261.801C442.277,261.52 446.996,260.754 451.48,259.527C450.195,263.797 448.625,267.914 446.785,271.781C446.734,271.813 446.68,271.84 446.625,271.871C444.695,272.93 442.848,274.102 441.105,275.445ZM465.965,253.633C465.492,257.684 464.508,261.523 462.891,265C458.574,266.625 454.27,268.176 450.223,270.059C451.652,266.449 452.844,262.699 453.785,258.852C458.02,257.523 462.051,255.773 465.965,253.633ZM129.32,253.633C133.238,255.773 137.266,257.523 141.5,258.852C142.445,262.699 143.637,266.449 145.066,270.059C141.016,268.176 136.715,266.625 132.395,265C130.777,261.523 129.793,257.684 129.32,253.633ZM435.621,261.871C435.789,262.48 435.941,263.109 436.074,263.758C433.484,263.188 430.961,262.535 428.805,261.82C431.148,261.93 433.414,261.945 435.621,261.871ZM159.668,261.871C161.875,261.945 164.141,261.93 166.48,261.82C164.328,262.535 161.805,263.188 159.215,263.758C159.348,263.109 159.5,262.48 159.668,261.871ZM371.121,200.055C383.34,221.047 425.523,250.777 446.414,249.883C425.816,244.586 393.34,229.238 375.25,200.395C380.18,201.895 385.023,202.387 389.887,201.227C401.027,217.121 441.723,244.512 479.824,241.527C462.273,258.32 438.59,261.609 426.281,260.262C399.5,250.363 372.707,224.672 358.547,202.746C362.922,202.754 367.18,201.996 371.121,200.055ZM224.164,200.055C228.105,201.996 232.367,202.754 236.738,202.746C222.578,224.672 195.789,250.363 169.008,260.262C156.695,261.609 133.016,258.32 115.461,241.527C153.566,244.512 194.262,217.121 205.402,201.227C210.262,202.387 215.105,201.895 220.039,200.395C201.949,229.238 169.469,244.586 148.875,249.883C169.766,250.777 211.949,221.047 224.164,200.055ZM297.047,231.02L297.129,229.785L293.016,235.188L293.102,236.164L292.98,236.324L293.129,237.941L292.68,238.473L293.328,244.953L296.785,238.906L297.219,233.07L296.953,233.387L297.117,230.922L297.047,231.02ZM323.574,243.875L319.867,241.582L321.156,241.723L319.176,240.383L321.031,240.586L314.371,236.051L308.492,234.969L309.855,236.348L308.547,236.105L310.871,238.445L309.746,238.258L314.934,243.008L323.574,243.875ZM283.805,235.617L276.559,238.426L278.73,238.68L276.43,239.563L279.609,239.93L274.535,241.711L278.641,242.145L282.527,238.906L280.645,239.566L283.723,236.754L281.734,237.52L283.805,235.617ZM465.379,236.465C465.555,237.578 465.711,238.691 465.84,239.801C462.617,239.555 459.441,239.129 456.387,238.535C456.391,238.328 456.391,238.121 456.395,237.91C459.336,237.867 462.348,237.352 465.379,236.465ZM129.91,236.465C132.938,237.352 135.953,237.867 138.895,237.91C138.898,238.121 138.898,238.328 138.902,238.535C135.844,239.129 132.672,239.555 129.449,239.801C129.578,238.691 129.734,237.578 129.91,236.465ZM455.34,237.906C455.332,238.043 455.324,238.184 455.313,238.32C454.402,238.129 453.508,237.922 452.621,237.703C453.52,237.82 454.426,237.887 455.34,237.906ZM139.949,237.906C140.863,237.887 141.77,237.82 142.668,237.703C141.781,237.922 140.887,238.129 139.977,238.32C139.965,238.184 139.957,238.043 139.949,237.906ZM399.793,196.414C413.148,212.57 451.441,227.805 470.574,222.984C450.691,222.133 424.738,216.512 402.969,193.758C403.371,193.387 403.773,193 404.18,192.594C406.406,191.875 408.57,190.816 410.625,189.344C427.086,200.949 470.918,215.402 503.441,205.992C490.875,224.211 466.145,234.898 454.75,236.012C431.684,233.586 405.055,217.805 391.938,200.641C394.543,199.766 397.156,198.387 399.793,196.414ZM195.492,196.414C198.133,198.387 200.746,199.766 203.352,200.641C190.234,217.805 163.602,233.586 140.539,236.012C129.145,234.898 104.414,224.211 91.848,205.992C124.371,215.402 168.203,200.949 184.664,189.344C186.715,190.816 188.883,191.875 191.109,192.594C191.516,193 191.918,193.387 192.32,193.758C170.547,216.512 144.598,222.133 124.711,222.984C143.844,227.805 182.137,212.57 195.492,196.414ZM228.48,217.93C233.215,212.262 236.883,206.977 239.141,202.672C242.578,202.461 246.063,201.832 249.496,200.988C249.074,201.863 248.648,202.73 248.215,203.594L228.48,217.93ZM347.074,203.594C346.641,202.73 346.215,201.863 345.793,200.988C349.227,201.832 352.711,202.461 356.148,202.672C358.406,206.977 362.074,212.262 366.805,217.93L347.074,203.594ZM176.879,181.137C177.059,181.246 177.23,181.352 177.41,181.453C179.023,184 180.789,186.074 182.668,187.746C165.023,200.391 135.379,208.219 112.285,206.141C100.84,202.859 78.477,189.133 69.555,169.313C103.219,185.766 150.254,179.352 164.203,170.879C165.691,171.992 167.266,172.879 168.906,173.57C170.305,175.484 171.77,177.098 173.293,178.457C146.645,194.68 119.652,194.895 99.566,191.914C117.766,200.063 159.02,193.445 176.879,181.137ZM418.406,181.137C436.27,193.445 477.523,200.063 495.723,191.914C475.637,194.895 448.645,194.68 421.996,178.457C423.52,177.098 424.984,175.484 426.383,173.57C428.023,172.879 429.598,171.992 431.086,170.879C445.035,179.352 492.07,185.766 525.734,169.313C516.813,189.133 494.449,202.859 483,206.141C459.91,208.219 430.266,200.391 412.617,187.746C414.5,186.074 416.266,184 417.879,181.453C418.055,181.352 418.23,181.246 418.406,181.137ZM351.66,192.875C356.727,193.699 361.699,194.176 366.414,193.859C370.699,193.934 375.512,193.781 379.781,191.227C367.934,204.59 355.887,202.715 343.793,199.086C346.93,196.887 349.523,194.855 351.66,192.875ZM243.629,192.875C245.766,194.855 248.359,196.887 251.496,199.086C239.402,202.715 227.352,204.59 215.508,191.227C219.777,193.781 224.59,193.934 228.875,193.859C233.59,194.176 238.563,193.699 243.629,192.875ZM214.473,191.668C216.656,194.672 219.074,196.949 221.66,198.633C212.898,202.039 203.77,202.563 193.332,193.203C193.355,193.211 193.379,193.215 193.406,193.219C197.852,195.148 202.453,194.5 206.496,193.758C209.219,193.168 211.863,192.445 214.473,191.668ZM380.816,191.668C383.426,192.445 386.066,193.168 388.793,193.758C392.832,194.5 397.438,195.148 401.883,193.219C401.906,193.215 401.93,193.207 401.957,193.203C391.52,202.563 382.387,202.039 373.629,198.633C376.215,196.949 378.633,194.672 380.816,191.668ZM336.836,196.152C344.008,190.344 351.594,181.965 350.719,175.379C348.648,159.809 351.91,151.156 359.461,151.082L370.395,149.035C377.816,147.645 385.258,145.434 392.645,142.938C396.93,141.359 401.691,139.406 404.594,135.508C399.555,152.852 384.695,156.02 369.984,156.223C358.273,156.383 359.914,167.66 358.887,176.922C357.938,185.492 353.34,191.082 341.188,199.316L336.836,196.152ZM254.102,199.316C241.949,191.082 237.352,185.492 236.402,176.922C235.375,167.66 237.016,156.383 225.305,156.223C210.594,156.02 195.734,152.852 190.695,135.508C193.598,139.406 198.359,141.359 202.645,142.938C210.031,145.434 217.473,147.645 224.895,149.035L235.828,151.082C243.379,151.156 246.641,159.809 244.57,175.379C243.695,181.965 251.281,190.344 258.453,196.152L254.102,199.316ZM357.781,185.277C364.418,185.82 372.141,185.641 379.039,183.676C382.242,183.152 385.504,182.195 388.324,180.078C378.063,194.555 365.59,193.953 352.859,191.719C353.602,190.977 354.277,190.242 354.895,189.504C356.063,188.105 357.016,186.711 357.781,185.277ZM237.508,185.277C238.273,186.711 239.227,188.105 240.391,189.504C241.012,190.242 241.688,190.977 242.43,191.719C229.695,193.953 217.227,194.555 206.965,180.078C209.785,182.195 213.047,183.152 216.246,183.676C223.148,185.641 230.871,185.82 237.508,185.277ZM208.199,183.617C210.316,186.234 212.641,188.25 215.137,189.781C214.266,189.398 213.391,189.02 212.512,188.668C212.867,189.277 213.23,189.855 213.602,190.418C201.797,193.91 190.098,195.664 179.145,182.371C179.313,182.449 179.484,182.531 179.652,182.605C182.789,184.402 186.25,184.863 189.535,184.961C194.996,185.352 200.715,184.598 206.438,183.848C207.035,183.77 207.637,183.691 208.199,183.617ZM387.09,183.617C387.652,183.691 388.25,183.77 388.848,183.848C394.574,184.598 400.293,185.352 405.754,184.961C409.039,184.863 412.5,184.402 415.633,182.605C415.805,182.531 415.977,182.449 416.145,182.371C405.191,195.664 393.492,193.91 381.684,190.418C382.059,189.855 382.422,189.277 382.777,188.668C381.895,189.02 381.023,189.398 380.152,189.781C382.645,188.25 384.973,186.234 387.09,183.617ZM234.934,176.34C234.953,176.527 234.973,176.711 234.992,176.898C235.27,179.406 235.844,181.676 236.801,183.832C222.953,184.879 209.582,184.273 200.129,169.23C204.184,172.586 209.461,173.656 214.16,174.441C214.168,174.441 214.176,174.441 214.184,174.445C220.746,176.254 228.035,176.531 234.934,176.34ZM360.352,176.34C367.254,176.531 374.543,176.254 381.105,174.445C381.113,174.441 381.121,174.441 381.129,174.441C385.824,173.656 391.105,172.586 395.16,169.23C385.707,184.273 372.332,184.879 358.488,183.832C359.441,181.676 360.016,179.406 360.293,176.898C360.316,176.715 360.336,176.527 360.352,176.34ZM204.359,177.746C205.262,179.441 206.219,180.977 207.234,182.359C194.277,184.047 181.258,186.145 171.48,174.715C177.117,176.66 182.941,176.305 188.836,175.145C193.098,176.066 197.645,176.121 202.184,175.676C202.746,176.309 203.508,177.016 204.359,177.746ZM390.93,177.746C391.781,177.016 392.543,176.309 393.105,175.676C397.645,176.121 402.188,176.066 406.453,175.145C412.348,176.305 418.172,176.66 423.809,174.715C414.031,186.145 401.008,184.047 388.055,182.359C389.066,180.977 390.027,179.441 390.93,177.746ZM156.324,162.176C156.609,162.352 156.895,162.52 157.184,162.68C158.758,165.477 160.566,167.727 162.551,169.52C141.449,179.137 110.582,179.324 86.664,173.051C75.297,167.605 55.434,151.32 45.648,130.863C70.813,147.051 124.48,146.477 143.547,145.918C143.691,146.125 143.84,146.332 143.988,146.539L145.703,150.285C147.668,153.953 149.855,156.816 152.219,159.039C121.332,166.73 97.48,159.684 77.512,156.207C95.324,165.445 136.191,169.316 156.324,162.176ZM438.965,162.176C459.098,169.316 499.965,165.445 517.777,156.207C497.809,159.684 473.957,166.73 443.07,159.039C445.434,156.816 447.621,153.953 449.586,150.285L451.297,146.539C451.449,146.332 451.594,146.125 451.738,145.918C470.809,146.477 524.477,147.051 549.641,130.863C539.855,151.32 519.988,167.605 508.625,173.051C484.707,179.324 453.84,179.137 432.738,169.52C434.723,167.727 436.527,165.477 438.105,162.68C438.395,162.52 438.68,162.352 438.965,162.176ZM361.012,167.566C362.387,167.418 363.758,167.285 365.129,167.152C370.73,167.059 376.563,166.621 382.008,165.305C382.762,165.191 383.52,165.07 384.277,164.945C389.133,164.004 394.578,162.762 398.645,159.285C389.336,174.809 375.16,175.656 360.469,175.027C360.664,172.539 360.738,170.055 361.012,167.566ZM234.273,167.566C234.547,170.055 234.625,172.539 234.82,175.027C220.125,175.656 205.953,174.809 196.641,159.285C200.711,162.762 206.156,164.004 211.008,164.945C211.77,165.07 212.527,165.191 213.281,165.305C218.727,166.621 224.555,167.059 230.16,167.152C231.531,167.285 232.902,167.418 234.273,167.566ZM420.906,166.445C421.746,166.465 422.59,166.477 423.438,166.477C427.203,166.367 431.402,166.094 435.125,164.086C435.5,163.938 435.867,163.785 436.234,163.617C428.031,174.211 418.961,175.621 409.617,174.273C413.867,172.84 417.738,170.371 420.906,166.445ZM174.379,166.445C177.551,170.371 181.418,172.84 185.668,174.273C176.328,175.621 167.258,174.211 159.055,163.617C159.422,163.785 159.789,163.938 160.164,164.086C163.883,166.094 168.082,166.367 171.848,166.477C172.695,166.477 173.543,166.465 174.379,166.445ZM198.004,166.063C198.766,169.25 200.031,171.945 201.676,174.219C190.645,175.363 180.137,174.051 172.047,161.027C175.828,164.176 180.633,164.969 184.906,165.504C189.336,165.926 193.672,166.012 198.004,166.063ZM397.285,166.063C401.613,166.012 405.953,165.926 410.383,165.504C414.652,164.969 419.461,164.176 423.242,161.027C415.148,174.051 404.645,175.363 393.613,174.219C395.258,171.945 396.52,169.25 397.285,166.063ZM288.234,174.516L288.234,146.922L303.207,146.922L303.207,171.723L297.645,167.68L288.234,174.516ZM307.055,146.922L307.055,174.516L304.773,172.859L304.773,146.922L307.055,146.922ZM199.91,166.086C201.742,168.129 203.832,169.785 206.117,171.121C203.227,169.914 200.75,167.832 198.168,166.066C198.746,166.07 199.328,166.078 199.91,166.086ZM395.379,166.086C395.957,166.078 396.539,166.074 397.121,166.066C394.539,167.832 392.063,169.914 389.168,171.121C391.453,169.785 393.547,168.129 395.379,166.086ZM367.238,157.887C368.078,157.785 368.918,157.684 369.754,157.578L369.836,157.578C376.129,157.492 382.469,156.867 388.145,154.848C392.926,153.777 398.145,152.324 401.992,148.926C392.676,165.301 377.184,166.086 361.246,165.832C361.887,161.984 363.32,158.855 367.238,157.887ZM228.051,157.887C231.969,158.855 233.402,161.984 234.039,165.832C218.105,166.086 202.613,165.301 193.297,148.926C197.145,152.324 202.363,153.777 207.145,154.848C212.82,156.867 219.16,157.492 225.453,157.578L225.531,157.578C226.371,157.684 227.211,157.785 228.051,157.887ZM442.238,153.414C444.434,152.613 446.543,151.492 448.344,149.793C441.715,162.176 432.285,164.836 422.086,164.863C423.449,162.895 424.66,160.617 425.688,157.977C422.766,159.816 420.051,161.969 416.734,162.957C414.656,163.578 412.461,163.898 410.391,164.156C409.887,164.113 409.383,164.066 408.879,164.023C412.367,162.715 415.551,160.645 418.168,157.5C418.277,157.496 418.383,157.492 418.492,157.484C426.672,157.082 435.207,156.621 442.238,153.414ZM153.047,153.414C160.082,156.621 168.617,157.082 176.793,157.484C176.902,157.492 177.012,157.496 177.121,157.5C179.738,160.645 182.918,162.715 186.41,164.023C185.906,164.066 185.402,164.113 184.898,164.156C182.828,163.898 180.633,163.578 178.555,162.957C175.238,161.969 172.523,159.816 169.602,157.977C170.625,160.617 171.84,162.895 173.203,164.863C163.004,164.836 153.574,162.176 146.941,149.793C148.746,151.492 150.855,152.613 153.047,153.414ZM400.953,156.234C403.191,156.18 405.441,156.078 407.719,155.887C411.988,155.406 416.801,154.668 420.617,151.559C413.777,162.293 405.383,164.945 396.445,164.809C398.297,162.441 399.828,159.609 400.953,156.234ZM194.336,156.234C195.457,159.609 196.988,162.441 198.84,164.809C189.906,164.945 181.512,162.293 174.672,151.559C178.488,154.668 183.297,155.406 187.57,155.887C189.848,156.078 192.098,156.18 194.336,156.234ZM398.445,156.313C398.578,156.297 398.711,156.285 398.848,156.27C399.328,156.266 399.809,156.258 400.289,156.25C397.516,158.547 394.977,160.566 391.422,161.805C391.367,161.824 391.313,161.844 391.258,161.859C393.926,160.422 396.355,158.602 398.445,156.313ZM196.844,156.313C198.934,158.602 201.363,160.422 204.031,161.859C203.977,161.844 203.922,161.824 203.867,161.805C200.309,160.566 197.77,158.547 195,156.25C195.48,156.258 195.961,156.266 196.441,156.27C196.574,156.285 196.711,156.297 196.844,156.313ZM238.398,150.121C238.242,150.074 238.082,150.031 237.918,149.996C237.227,149.832 236.516,149.742 235.789,149.73C228.492,148.363 221.215,147.129 213.996,145.105C212.359,144.648 210.785,144.207 209.258,143.754C216.945,134.816 224.992,132.777 233.309,133.141C244.328,133.625 255.813,138.313 267.555,136.754C262.035,143.785 254.098,151.656 245.246,157.48C244.277,154.668 242.629,152.051 239.871,150.691C245.5,148.254 250.859,145.195 255.742,141.57C250.434,145.059 244.543,147.93 238.398,150.121ZM356.891,150.121C350.742,147.93 344.855,145.059 339.547,141.57C344.426,145.195 349.789,148.254 355.418,150.691C352.66,152.051 351.012,154.668 350.043,157.48C341.191,151.656 333.254,143.785 327.734,136.754C339.473,138.313 350.961,133.625 361.977,133.141C370.297,132.777 378.34,134.816 386.031,143.754C384.504,144.207 382.926,144.648 381.293,145.105C374.07,147.129 366.797,148.363 359.5,149.73C358.77,149.742 358.063,149.832 357.371,149.996C357.207,150.031 357.047,150.074 356.891,150.121ZM436.395,145.457C438.547,144.938 440.703,144.367 442.863,143.719C447.051,142.328 451.727,140.582 454.898,136.781C448.387,153.41 435.316,155.223 421.746,155.973C427.734,154.152 432.934,150.961 436.395,145.457ZM158.895,145.457C162.355,150.961 167.555,154.152 173.543,155.973C159.973,155.223 146.902,153.41 140.391,136.781C143.563,140.582 148.238,142.328 152.426,143.719C154.586,144.367 156.742,144.938 158.895,145.457ZM408.113,154.5C412.965,153.039 417.258,150.68 420.617,146.938C422.32,146.598 424.027,146.227 425.742,145.805C429.953,144.637 434.664,143.137 437.945,139.512C433.664,149.422 427.137,153.707 419.625,155.551C420.984,153.52 422.148,151.129 423.066,148.309C420.262,150.418 417.523,152.438 414.094,153.422C412.145,153.977 410.082,154.27 408.113,154.5ZM187.172,154.5C185.207,154.27 183.145,153.977 181.195,153.422C177.762,152.438 175.027,150.418 172.223,148.309C173.141,151.129 174.305,153.52 175.664,155.551C168.152,153.707 161.625,149.422 157.344,139.512C160.625,143.137 165.336,144.637 169.547,145.805C171.258,146.227 172.969,146.598 174.672,146.938C178.027,150.68 182.324,153.039 187.172,154.5ZM404.258,145.969C406.98,145.484 409.707,144.941 412.445,144.266C416.656,143.098 421.367,141.602 424.648,137.977C419.113,150.797 409.813,154.199 399.492,155.086C401.492,152.586 403.121,149.582 404.258,145.969ZM191.027,145.969C192.168,149.582 193.797,152.586 195.797,155.086C185.477,154.199 176.176,150.797 170.641,137.977C173.922,141.602 178.629,143.098 182.844,144.266C185.582,144.941 188.309,145.484 191.027,145.969ZM194.984,146.645C196.512,148.496 198.348,150.176 200.598,151.645C197.148,150.355 194.48,148.242 191.605,146.074C192.73,146.27 193.859,146.461 194.984,146.645ZM400.301,146.645C401.43,146.461 402.555,146.27 403.684,146.074C400.809,148.242 398.141,150.355 394.691,151.645C396.941,150.176 398.777,148.496 400.301,146.645ZM279.93,135.801L315.359,135.801C317.578,135.801 319.395,137.617 319.395,139.836L319.395,141.504C319.395,143.727 317.578,145.543 315.359,145.543L279.93,145.543C277.711,145.543 275.891,143.727 275.891,141.504L275.891,139.836C275.891,138.828 276.27,137.902 276.887,137.191L314.238,137.191C315.895,137.191 317.254,138.34 317.254,139.996L317.254,144.008C317.914,143.457 318.34,142.629 318.34,141.703L318.34,139.605C318.34,137.953 316.984,136.598 315.332,136.598L277.527,136.598C278.199,136.098 279.031,135.801 279.93,135.801ZM207.969,143.363C204.324,142.23 200.949,140.969 197.723,139.148C196.844,128.641 198.52,117.293 202.766,107.559C197.996,116.965 195.727,127.77 196.039,138.137C193.313,136.395 190.676,134.191 188.063,131.25C189.352,136.32 190.969,141.063 193.82,145.109C192.801,144.941 191.789,144.766 190.77,144.582C187.367,138.906 187.301,132.063 189.129,125.16C191.828,114.969 198.641,104.648 204.895,97.75C205.324,107.043 210.656,115.254 212.594,123.699C214.027,129.945 213.605,136.324 207.969,143.363ZM387.316,143.363C381.68,136.324 381.258,129.945 382.695,123.699C384.633,115.254 389.965,107.043 390.395,97.75C396.648,104.648 403.461,114.969 406.16,125.16C407.984,132.063 407.922,138.906 404.516,144.582C403.5,144.766 402.484,144.941 401.469,145.109C404.32,141.063 405.938,136.32 407.227,131.25C404.609,134.191 401.977,136.395 399.25,138.137C399.563,127.77 397.293,116.965 392.523,107.559C396.77,117.293 398.441,128.641 397.566,139.148C394.34,140.969 390.965,142.23 387.316,143.363ZM349.207,133.473C349.082,133.207 348.965,132.941 348.848,132.672C344.828,123.328 344.375,111.898 338.242,102.773C349.383,105.063 363.504,110.223 373.406,118.066C376.445,120.473 379.086,123.137 381.121,126.043C380.559,129.922 380.801,133.871 382.551,138.027C379.879,135.914 377.184,134.441 374.461,133.453C367.539,124.086 358.098,116.008 347.301,110.637C356.785,116.051 365.227,123.848 371.563,132.578C368.465,131.828 365.336,131.629 362.168,131.75C357.91,131.914 353.586,132.66 349.207,133.473ZM246.082,133.473C241.703,132.66 237.379,131.914 233.121,131.75C229.953,131.629 226.824,131.828 223.727,132.578C230.063,123.848 238.504,116.051 247.984,110.637C237.188,116.008 227.75,124.086 220.828,133.453C218.105,134.441 215.41,135.914 212.738,138.027C214.488,133.871 214.73,129.922 214.168,126.043C216.203,123.137 218.844,120.473 221.883,118.066C231.785,110.223 245.902,105.063 257.047,102.773C250.914,111.898 250.457,123.328 246.441,132.672C246.324,132.941 246.203,133.207 246.082,133.473ZM303.023,108.07C307.832,110.84 311.207,117.203 311.207,124.578C311.207,128.207 310.391,131.59 308.988,134.418L308.262,134.418C308.805,132.094 309.113,129.449 309.113,126.648C309.113,120.797 307.77,115.629 305.738,112.621C307.035,115.645 307.836,119.75 307.836,124.262C307.836,128.074 307.266,131.598 306.305,134.418L286.301,134.418C284.898,131.59 284.082,128.207 284.082,124.578C284.082,117.203 287.457,110.84 292.266,108.07C293.539,108.82 295.477,109.301 297.645,109.301C299.813,109.301 301.75,108.82 303.023,108.07ZM302.813,107.355L302.813,107.828C301.543,108.465 299.695,108.871 297.645,108.871C295.594,108.871 293.746,108.465 292.473,107.828L292.473,107.359C293.746,108.039 295.594,108.473 297.645,108.473C299.695,108.473 301.543,108.039 302.813,107.355ZM302.813,106.527L302.813,106.996C301.543,107.637 299.695,108.039 297.645,108.039C295.594,108.039 293.746,107.637 292.473,106.996L292.473,106.527C293.746,107.211 295.594,107.641 297.645,107.641C299.695,107.641 301.543,107.211 302.813,106.527ZM297.645,92.344C300.402,92.344 302.813,94.133 302.813,97.094L302.813,106.168C301.543,106.805 299.695,107.211 297.645,107.211C295.594,107.211 293.746,106.805 292.473,106.168L292.473,97.094C292.473,94.133 294.887,92.344 297.645,92.344Z" style="fill:white;"/>
    </g>
</svg>
