<?xml version="1.0" encoding="UTF-8" standalone="no"?>
<!DOCTYPE svg PUBLIC "-//W3C//DTD SVG 1.1//EN" "http://www.w3.org/Graphics/SVG/1.1/DTD/svg11.dtd">
<svg width="100%" height="100%" viewBox="0 0 300 300" version="1.1" xmlns="http://www.w3.org/2000/svg" xmlns:xlink="http://www.w3.org/1999/xlink" xml:space="preserve" xmlns:serif="http://www.serif.com/" style="fill-rule:evenodd;clip-rule:evenodd;stroke-linejoin:round;stroke-miterlimit:2;">
    <g transform="matrix(4.41175,0,0,4.41175,121.486,47.9098)">
        <path d="M5.437,3.217C1.287,6.343 -0.967,10.378 0.399,12.233C1.772,14.095 6.25,13.066 10.406,9.939C14.563,6.82 16.817,2.779 15.444,0.923C14.072,-0.932 9.594,0.097 5.437,3.217Z" style="fill:white;"/>
    </g>
    <g transform="matrix(4.41175,0,0,4.41175,0.861659,258.716)">
        <path d="M1.171,7.358L0,7.358L0,0L3.325,0C3.848,0 4.276,0.038 4.591,0.102C4.906,0.178 5.183,0.286 5.391,0.432C5.618,0.61 5.806,0.839 5.945,1.118C6.077,1.404 6.14,1.709 6.14,2.04C6.14,2.364 6.09,2.65 5.976,2.904C5.869,3.164 5.706,3.387 5.498,3.552C5.378,3.653 5.246,3.742 5.126,3.793C5.007,3.85 4.83,3.914 4.622,3.971C4.862,4.079 5.07,4.194 5.233,4.314C5.397,4.435 5.529,4.587 5.63,4.753C5.725,4.918 5.806,5.128 5.857,5.369C5.914,5.617 5.945,5.903 5.97,6.246C5.976,6.462 5.989,6.627 6.002,6.748C6.014,6.868 6.021,6.957 6.033,7.027C6.046,7.104 6.065,7.161 6.09,7.199C6.096,7.243 6.134,7.301 6.165,7.358L4.963,7.358C4.944,7.301 4.931,7.269 4.918,7.237C4.906,7.199 4.887,7.148 4.874,7.046C4.862,6.862 4.856,6.729 4.843,6.627C4.83,6.532 4.818,6.417 4.811,6.297C4.78,5.909 4.698,5.591 4.604,5.324C4.503,5.064 4.352,4.854 4.163,4.689C3.968,4.537 3.716,4.422 3.42,4.346C3.124,4.282 2.752,4.244 2.33,4.244L1.171,4.244L1.171,7.358ZM3.25,3.31C3.583,3.31 3.86,3.285 4.056,3.253C4.238,3.221 4.396,3.158 4.503,3.069C4.78,2.847 4.906,2.529 4.906,2.116C4.906,1.887 4.862,1.677 4.786,1.493C4.698,1.303 4.578,1.169 4.415,1.08C4.32,1.029 4.175,0.991 4.012,0.972C3.835,0.953 3.583,0.94 3.25,0.94L1.171,0.94L1.171,3.31L3.25,3.31Z" style="fill:white;"/>
    </g>
    <g transform="matrix(4.41175,0,0,4.41175,33.3122,258.716)">
        <rect x="0" y="0" width="1.171" height="7.358" style="fill:white;"/>
    </g>
    <g transform="matrix(4.41175,0,0,4.41175,43.6212,258.716)">
        <path d="M0.265,6.417L3.413,6.417C3.684,6.417 3.905,6.411 4.068,6.373C4.232,6.341 4.364,6.297 4.484,6.22C4.786,6.036 4.944,5.725 4.944,5.293C4.944,5.02 4.887,4.778 4.78,4.587C4.66,4.403 4.497,4.282 4.289,4.213C4.188,4.181 4.056,4.162 3.892,4.149C3.728,4.136 3.502,4.136 3.193,4.136L2.595,4.136C2.135,4.136 1.763,4.105 1.467,4.047C1.171,3.99 0.932,3.895 0.743,3.761C0.504,3.596 0.321,3.387 0.202,3.12C0.069,2.859 0,2.561 0,2.217C0,1.798 0.101,1.423 0.29,1.093C0.472,0.762 0.724,0.496 1.052,0.311C1.26,0.203 1.499,0.121 1.776,0.07C2.047,0.025 2.393,0 2.834,0L5.825,0L5.825,0.94L2.834,0.94C2.519,0.94 2.267,0.953 2.103,0.985C1.927,1.017 1.776,1.074 1.65,1.15C1.53,1.239 1.436,1.36 1.36,1.512C1.278,1.677 1.234,1.855 1.234,2.052C1.234,2.427 1.36,2.694 1.612,2.847C1.852,2.999 2.255,3.075 2.834,3.075L3.268,3.075C3.59,3.075 3.873,3.088 4.1,3.101C4.333,3.113 4.528,3.132 4.704,3.164C4.868,3.202 5.019,3.247 5.139,3.298C5.259,3.355 5.366,3.431 5.466,3.507C5.693,3.698 5.869,3.952 5.989,4.244C6.109,4.543 6.178,4.886 6.178,5.248C6.178,5.68 6.09,6.055 5.901,6.373C5.718,6.697 5.454,6.938 5.12,7.104C5.019,7.161 4.912,7.193 4.799,7.224C4.692,7.256 4.572,7.288 4.427,7.301C4.289,7.326 4.125,7.332 3.936,7.345C3.753,7.358 3.52,7.358 3.268,7.358L0.265,7.358L0.265,6.417Z" style="fill:white;"/>
    </g>
    <g transform="matrix(4.41175,0,0,4.41175,72.7101,258.716)">
        <path d="M0,0.94L0,0L6.203,0L6.203,0.94L3.69,0.94L3.69,7.358L2.525,7.358L2.525,0.94L0,0.94Z" style="fill:white;"/>
    </g>
    <g transform="matrix(4.41175,0,0,4.41175,101.91,258.716)">
        <path d="M5.643,0.94L3.52,0.94C3.262,0.94 3.029,0.953 2.834,0.985C2.639,1.017 2.462,1.061 2.318,1.125C2.166,1.201 2.034,1.29 1.927,1.404C1.814,1.512 1.719,1.646 1.619,1.811C1.568,1.913 1.511,1.995 1.48,2.084C1.442,2.186 1.411,2.287 1.392,2.383C1.36,2.484 1.335,2.605 1.323,2.739C1.316,2.872 1.304,3.024 1.291,3.19L5.643,3.19L5.643,4.124L1.278,4.124C1.291,4.676 1.404,5.153 1.631,5.56C1.814,5.877 2.047,6.1 2.318,6.22C2.595,6.354 2.966,6.417 3.457,6.417L5.643,6.417L5.643,7.358L3.25,7.358C2.928,7.358 2.639,7.332 2.387,7.301C2.135,7.269 1.902,7.199 1.707,7.123C1.499,7.046 1.323,6.938 1.159,6.805C0.995,6.684 0.844,6.519 0.699,6.328C0.453,5.998 0.277,5.636 0.164,5.242C0.057,4.854 0,4.378 0,3.825C0,2.338 0.428,1.245 1.278,0.578C1.53,0.375 1.852,0.235 2.223,0.133C2.582,0.044 3.042,0 3.59,0L5.643,0L5.643,0.94Z" style="fill:white;"/>
    </g>
    <g transform="matrix(4.41175,0,0,4.41175,132.501,258.716)">
        <path d="M1.165,7.358L0,7.358L0,0L1.165,0L1.165,7.358ZM4.685,0L6.109,0L2.412,3.552L6.323,7.358L4.761,7.358L1.165,3.609L4.685,0Z" style="fill:white;"/>
    </g>
    <g transform="matrix(4.41175,0,0,4.41175,164.008,258.716)">
        <path d="M2.802,0C3.18,0 3.514,0.013 3.785,0.038C4.056,0.07 4.308,0.114 4.515,0.165C4.723,0.235 4.9,0.324 5.063,0.419C5.227,0.534 5.378,0.661 5.536,0.826C5.851,1.169 6.09,1.557 6.235,1.995C6.373,2.453 6.449,2.98 6.449,3.609C6.449,4.448 6.329,5.14 6.102,5.699C5.869,6.265 5.523,6.684 5.063,6.957C4.931,7.034 4.799,7.104 4.667,7.161C4.541,7.212 4.396,7.243 4.232,7.281C4.068,7.313 3.886,7.326 3.678,7.332C3.47,7.345 3.206,7.358 2.91,7.358L0,7.358L0,0L2.802,0ZM1.171,6.417L3.029,6.417C3.476,6.417 3.842,6.354 4.125,6.233C4.396,6.112 4.629,5.922 4.793,5.649C4.931,5.439 5.038,5.159 5.12,4.842C5.183,4.524 5.214,4.168 5.214,3.774C5.214,3.298 5.17,2.872 5.076,2.484C4.975,2.097 4.83,1.785 4.66,1.557C4.497,1.334 4.276,1.182 4.012,1.08C3.753,0.985 3.401,0.94 2.954,0.94L1.171,0.94L1.171,6.417Z" style="fill:white;"/>
    </g>
    <g transform="matrix(4.41175,0,0,4.41175,197.541,258.716)">
        <rect x="0" y="0" width="1.165" height="7.358" style="fill:white;"/>
    </g>
    <g transform="matrix(4.41175,0,0,4.41175,209.572,258.716)">
        <path d="M1.171,7.358L0,7.358L0,0L1.171,0L1.171,7.358ZM4.692,0L6.109,0L2.418,3.552L6.329,7.358L4.767,7.358L1.171,3.609L4.692,0Z" style="fill:white;"/>
    </g>
    <g transform="matrix(4.41175,0,0,4.41175,238.801,258.716)">
        <path d="M0,0.94L0,0L6.209,0L6.209,0.94L3.69,0.94L3.69,7.358L2.525,7.358L2.525,0.94L0,0.94Z" style="fill:white;"/>
    </g>
    <g transform="matrix(4.41175,0,0,4.41175,269.835,258.716)">
        <rect x="0" y="0" width="1.171" height="7.358" style="fill:white;"/>
    </g>
    <path d="M170.234,176.647C158.621,193.576 154.985,208.714 162.312,216.808C171.777,227.257 196.775,223.062 224.284,208.12C219.249,216.321 217.936,223.513 221.576,227.516C227.355,233.908 243.776,230.235 260.835,219.555L260.454,218.88C266.1,228.839 271.021,239.263 275.17,250.138C185.095,228.442 103.439,233.627 0,251.4C48.872,203.718 83.018,132.294 16.92,72.054C127.275,91.225 214.646,140.285 259.055,216.445C247.663,223.004 236.218,225.694 229.745,222.555C224.42,219.973 223.587,214.033 226.598,206.84C232.667,203.428 238.835,199.505 244.968,195.112C243.746,193.458 242.468,191.804 241.19,190.15C217.213,206.689 191.124,214.37 177.315,207.67C166.594,202.49 165.779,189.897 173.312,174.958C184.213,168.897 195.321,161.833 206.349,153.85C203.682,151.552 200.931,149.309 198.125,147.094C158.7,174.117 115.913,186.647 93.214,175.63C71.487,165.119 74.404,136.134 97.243,104.234C66.18,139.89 53.483,174.173 68.459,190.739C84.014,207.921 125.025,201.09 170.234,176.647Z" style="fill:white;"/>
    <g transform="matrix(4.41175,0,0,4.41175,259.056,167.539)">
        <path d="M2.582,10.266C7.142,6.707 9.579,2.431 8.023,0.716C6.934,-0.485 4.194,-0.123 1.09,1.415C2.91,0.709 4.566,0.531 5.63,1.052C7.752,2.082 6.726,5.468 3.338,8.62C2.292,9.592 1.146,10.424 0,11.085C0.139,11.32 0.271,11.555 0.403,11.79C1.127,11.339 1.858,10.825 2.582,10.266Z" style="fill:white;"/>
    </g>
    <g transform="matrix(4.41175,0,0,4.41175,240.025,106.619)">
        <path d="M2.733,18.858C11.115,12.32 15.587,4.466 12.734,1.308C10.738,-0.89 5.706,-0.223 0,2.598C3.338,1.308 6.38,0.978 8.338,1.931C12.243,3.818 10.353,10.045 4.125,15.839C2.903,16.977 1.6,18.019 0.265,18.934C0.554,19.309 0.844,19.684 1.121,20.058C1.663,19.677 2.198,19.277 2.733,18.858Z" style="fill:white;"/>
    </g>
    <g transform="matrix(4.41175,0,0,4.41175,196.709,8.82387)">
        <path d="M4.515,31.125C18.345,20.337 25.732,7.368 21.015,2.165C17.728,-1.47 9.421,-0.371 0,4.287C5.51,2.158 10.536,1.618 13.767,3.188C20.209,6.307 17.092,16.588 6.814,26.144C4.755,28.063 2.563,29.804 0.321,31.341C0.957,31.843 1.581,32.352 2.185,32.873C2.966,32.313 3.741,31.729 4.515,31.125Z" style="fill:white;"/>
    </g>
</svg>
