<?xml version="1.0" encoding="UTF-8" standalone="no"?>
<!DOCTYPE svg PUBLIC "-//W3C//DTD SVG 1.1//EN" "http://www.w3.org/Graphics/SVG/1.1/DTD/svg11.dtd">
<svg width="100%" height="100%" viewBox="0 0 96 96" version="1.1" xmlns="http://www.w3.org/2000/svg" xmlns:xlink="http://www.w3.org/1999/xlink" xml:space="preserve" xmlns:serif="http://www.serif.com/" style="fill-rule:evenodd;clip-rule:evenodd;stroke-linejoin:round;stroke-miterlimit:2;">
    <g transform="matrix(0.145455,2.81795e-33,-2.81795e-33,-0.145455,-21.8182,117.818)">
        <path d="M150,810L150,570L180,570C207,570 210,567 210,540C210,513 207,510 180,510C153,510 150,507 150,480C150,453 153,450 180,450C207,450 210,453 210,480C210,507 213,510 240,510C267,510 270,507 270,480C270,453 273,450 300,450C327,450 330,447 330,420L330,390L150,390L150,150L390,150L390,390L570,390L570,420C570,447 567,450 540,450C513,450 510,453 510,480L510,510L630,510L630,480C630,453 633,450 660,450C687,450 690,447 690,420C690,393 687,390 660,390C633,390 630,387 630,360L630,330L480,330L480,150L540,150L540,270L660,270L660,240C660,213 657,210 630,210C603,210 600,207 600,180C600,153 603,150 630,150C657,150 660,153 660,180C660,207 663,210 690,210C717,210 720,213 720,240C720,260 725,270 735,270C745,270 750,280 750,300C750,327 753,330 780,330C807,330 810,333 810,360C810,387 807,390 780,390C753,390 750,393 750,420C750,447 753,450 780,450C807,450 810,453 810,480C810,507 807,510 780,510C753,510 750,513 750,540C750,567 753,570 780,570L810,570L810,810L570,810L570,570L390,570L390,810L150,810ZM330,750L330,630L210,630L210,750L330,750ZM750,750L750,630L630,630L630,750L750,750ZM390,540C390,513 393,510 420,510C447,510 450,507 450,480L450,450L330,450L330,480C330,507 327,510 300,510C273,510 270,513 270,540L270,570L390,570L390,540ZM690,540C690,513 693,510 720,510C747,510 750,507 750,480C750,453 747,450 720,450C693,450 690,453 690,480C690,507 687,510 660,510C633,510 630,513 630,540C630,567 633,570 660,570C687,570 690,567 690,540ZM750,360C750,333 747,330 720,330C693,330 690,333 690,360C690,387 693,390 720,390C747,390 750,387 750,360ZM330,330L330,210L210,210L210,330L330,330Z" style="fill-rule:nonzero;"/>
    </g>
    <g transform="matrix(0.145455,2.81795e-33,-2.81795e-33,-0.145455,-21.8182,117.818)">
        <path d="M240,690C240,663 243,660 270,660C297,660 300,663 300,690C300,717 297,720 270,720C243,720 240,717 240,690Z" style="fill-rule:nonzero;"/>
    </g>
    <g transform="matrix(0.145455,2.81795e-33,-2.81795e-33,-0.145455,-21.8182,117.818)">
        <path d="M660,690C660,663 663,660 690,660C717,660 720,663 720,690C720,717 717,720 690,720C663,720 660,717 660,690Z" style="fill-rule:nonzero;"/>
    </g>
    <g transform="matrix(0.145455,2.81795e-33,-2.81795e-33,-0.145455,-21.8182,117.818)">
        <path d="M240,270C240,243 243,240 270,240C297,240 300,243 300,270C300,297 297,300 270,300C243,300 240,297 240,270Z" style="fill-rule:nonzero;"/>
    </g>
    <g transform="matrix(0.145455,2.81795e-33,-2.81795e-33,-0.145455,-21.8182,117.818)">
        <path d="M450,750C450,703 447,690 435,690C425,690 420,680 420,660C420,640 425,630 435,630C443,630 450,623 450,615C450,605 460,600 480,600C509,600 510,602 510,645C510,678 514,690 525,690C535,690 540,700 540,720C540,740 535,750 525,750C515,750 510,760 510,780C510,807 507,810 480,810L450,810L450,750Z" style="fill-rule:nonzero;"/>
    </g>
    <g transform="matrix(0.145455,2.81795e-33,-2.81795e-33,-0.145455,-21.8182,117.818)">
        <path d="M750,180C750,153 753,150 780,150C807,150 810,153 810,180C810,207 807,210 780,210C753,210 750,207 750,180Z" style="fill-rule:nonzero;"/>
    </g>
</svg>
