<?xml version="1.0" encoding="UTF-8" standalone="no"?>
<!DOCTYPE svg PUBLIC "-//W3C//DTD SVG 1.1//EN" "http://www.w3.org/Graphics/SVG/1.1/DTD/svg11.dtd">
<svg width="100%" height="100%" viewBox="0 0 2481 3508" version="1.1" xmlns="http://www.w3.org/2000/svg" xmlns:xlink="http://www.w3.org/1999/xlink" xml:space="preserve" xmlns:serif="http://www.serif.com/" style="fill-rule:evenodd;clip-rule:evenodd;stroke-linecap:round;stroke-linejoin:round;stroke-miterlimit:1.5;">
    <rect x="0" y="0" width="2480.32" height="3507.87" style="fill:white;"/>
    <g transform="matrix(0.461818,0,0,0.790125,199.134,732.601)">
        <rect x="208.18" y="295.276" width="747.44" height="112.419" style="fill:rgb(167,167,167);"/>
    </g>
    <g transform="matrix(0.461818,0,0,0.790125,930.528,563.951)">
        <rect x="208.18" y="295.276" width="747.44" height="112.419" style="fill:rgb(216,216,216);"/>
    </g>
    <g transform="matrix(1.54978,0,0,0.790125,704.035,918.966)">
        <rect x="208.18" y="295.276" width="747.44" height="112.419" style="fill:rgb(216,216,216);"/>
    </g>
    <g transform="matrix(1.26416,0,0,0.790125,976.985,785.728)">
        <rect x="208.18" y="295.276" width="747.44" height="112.419" style="fill:rgb(216,216,216);"/>
    </g>
    <g transform="matrix(0.918472,0,0,0.790125,835.462,1318.68)">
        <rect x="208.18" y="295.276" width="747.44" height="112.419" style="fill:rgb(216,216,216);"/>
    </g>
    <g transform="matrix(1.54978,0,0,0.790125,704.035,1185.44)">
        <rect x="208.18" y="295.276" width="747.44" height="112.419" style="fill:rgb(216,216,216);"/>
    </g>
    <g transform="matrix(1.54978,0,0,0.790125,704.035,1052.2)">
        <rect x="208.18" y="295.276" width="747.44" height="112.419" style="fill:rgb(216,216,216);"/>
    </g>
    <g transform="matrix(1.54978,0,0,0.790125,704.035,1623.08)">
        <rect x="208.18" y="295.276" width="747.44" height="112.419" style="fill:rgb(216,216,216);"/>
    </g>
    <g transform="matrix(1.26416,0,0,0.790125,976.985,1489.84)">
        <rect x="208.18" y="295.276" width="747.44" height="112.419" style="fill:rgb(216,216,216);"/>
    </g>
    <g transform="matrix(0.918472,0,0,0.790125,835.462,2022.79)">
        <rect x="208.18" y="295.276" width="747.44" height="112.419" style="fill:rgb(216,216,216);"/>
    </g>
    <g transform="matrix(1.54978,0,0,0.790125,704.035,1889.55)">
        <rect x="208.18" y="295.276" width="747.44" height="112.419" style="fill:rgb(216,216,216);"/>
    </g>
    <g transform="matrix(1.54978,0,0,0.790125,704.035,1756.32)">
        <rect x="208.18" y="295.276" width="747.44" height="112.419" style="fill:rgb(216,216,216);"/>
    </g>
    <g transform="matrix(0.461818,0,0,0.790125,1743.72,61.9711)">
        <rect x="208.18" y="295.276" width="747.44" height="112.419" style="fill:rgb(167,167,167);"/>
    </g>
    <g transform="matrix(0.627474,0,0,0.790125,1585.41,195.209)">
        <rect x="208.18" y="295.276" width="747.44" height="112.419" style="fill:rgb(167,167,167);"/>
    </g>
    <g transform="matrix(0.752273,0,0,0.790125,138.667,967.06)">
        <rect x="208.18" y="295.276" width="747.44" height="112.419" style="fill:rgb(167,167,167);"/>
    </g>
    <g transform="matrix(0.752273,0,0,0.790125,1411.74,2522.92)">
        <rect x="208.18" y="295.276" width="747.44" height="112.419" style="fill:rgb(167,167,167);"/>
    </g>
    <g transform="matrix(0.752273,0,0,0.790125,1411.74,2890.47)">
        <rect x="208.18" y="295.276" width="747.44" height="112.419" style="fill:rgb(167,167,167);"/>
    </g>
    <g transform="matrix(0.752273,0,0,0.790125,138.667,1233.54)">
        <rect x="208.18" y="295.276" width="747.44" height="112.419" style="fill:rgb(167,167,167);"/>
    </g>
    <g transform="matrix(0.752273,0,0,0.790125,138.667,1100.3)">
        <rect x="208.18" y="295.276" width="747.44" height="112.419" style="fill:rgb(167,167,167);"/>
    </g>
    <g transform="matrix(0.461818,0,0,0.790125,199.134,1609.11)">
        <rect x="208.18" y="295.276" width="747.44" height="112.419" style="fill:rgb(167,167,167);"/>
    </g>
    <g transform="matrix(0.752273,0,0,0.790125,138.667,1843.57)">
        <rect x="208.18" y="295.276" width="747.44" height="112.419" style="fill:rgb(167,167,167);"/>
    </g>
    <g transform="matrix(0.752273,0,0,0.790125,138.667,2110.04)">
        <rect x="208.18" y="295.276" width="747.44" height="112.419" style="fill:rgb(167,167,167);"/>
    </g>
    <g transform="matrix(0.752273,0,0,0.790125,138.667,1976.8)">
        <rect x="208.18" y="295.276" width="747.44" height="112.419" style="fill:rgb(167,167,167);"/>
    </g>
    <g transform="matrix(2.38995e-16,3.90308,-0.071835,4.39862e-18,970.066,-517.268)">
        <rect x="208.18" y="295.276" width="747.44" height="112.419" style="fill:rgb(191,191,191);"/>
    </g>
    <g transform="matrix(0.453411,0,0,0.790125,200.885,61.9711)">
        <rect x="208.18" y="295.276" width="747.44" height="112.419" style="fill:rgb(93,93,93);"/>
    </g>
    <g transform="matrix(0.569698,0,0,0.790125,176.676,328.447)">
        <rect x="208.18" y="295.276" width="747.44" height="112.419" style="fill:rgb(93,93,93);"/>
    </g>
    <g transform="matrix(0.752273,0,0,0.790125,138.667,195.209)">
        <rect x="208.18" y="295.276" width="747.44" height="112.419" style="fill:rgb(93,93,93);"/>
    </g>
    <path d="M1597.98,2968.8C1639.5,2926.3 1689.13,2893.42 1743.04,2868.86C1788.16,2848.3 1946.38,2811.88 1922.82,2911.2C1911.22,2960.07 1871.31,3000.08 1830.41,3026.97C1817.37,3035.55 1796.19,3044.75 1786.31,3057.02C1784.12,3059.73 1798.43,3075.67 1799.8,3077.13C1826.27,3105.27 1881.14,3095.3 1913.05,3086.02C1917.31,3084.78 1921.55,3083.45 1925.75,3082.02C2024.63,3048.36 2084.38,2983.89 2130.63,2892.92" style="fill:none;stroke:rgb(93,93,93);stroke-width:42.13px;"/>
</svg>
