<?xml version="1.0" encoding="UTF-8" standalone="no"?>
<!DOCTYPE svg PUBLIC "-//W3C//DTD SVG 1.1//EN" "http://www.w3.org/Graphics/SVG/1.1/DTD/svg11.dtd">
<svg width="100%" height="100%" viewBox="0 0 2481 3508" version="1.1" xmlns="http://www.w3.org/2000/svg" xmlns:xlink="http://www.w3.org/1999/xlink" xml:space="preserve" xmlns:serif="http://www.serif.com/" style="fill-rule:evenodd;clip-rule:evenodd;stroke-linecap:round;stroke-linejoin:round;stroke-miterlimit:1.5;">
    <rect x="0" y="0" width="2480.32" height="3507.87" style="fill:white;"/>
    <g transform="matrix(0.647727,0,0,0.790125,1302.75,594.922)">
        <rect x="208.18" y="295.276" width="747.44" height="112.419" style="fill:rgb(191,191,191);"/>
    </g>
    <g transform="matrix(1,0,0,0.790125,87.0956,1041.41)">
        <rect x="208.18" y="295.276" width="747.44" height="112.419" style="fill:rgb(191,191,191);"/>
    </g>
    <g transform="matrix(2.52831,0,0,0.790125,-231.069,1644.55)">
        <rect x="208.18" y="295.276" width="747.44" height="112.419" style="fill:rgb(191,191,191);"/>
    </g>
    <g transform="matrix(2.52831,0,0,0.790125,-231.069,1777.79)">
        <rect x="208.18" y="295.276" width="747.44" height="112.419" style="fill:rgb(191,191,191);"/>
    </g>
    <g transform="matrix(1.1268,0,0,0.790125,60.6982,1911.03)">
        <rect x="208.18" y="295.276" width="747.44" height="112.419" style="fill:rgb(191,191,191);"/>
    </g>
    <g transform="matrix(1,0,0,0.790125,724.047,1174.65)">
        <rect x="208.18" y="295.276" width="747.44" height="112.419" style="fill:rgb(191,191,191);"/>
    </g>
    <g transform="matrix(0.578182,0,0,0.790125,294.5,1174.65)">
        <rect x="208.18" y="295.276" width="747.44" height="112.419" style="fill:rgb(191,191,191);"/>
    </g>
    <g transform="matrix(1,0,0,0.790125,724.047,1441.13)">
        <rect x="208.18" y="295.276" width="747.44" height="112.419" style="fill:rgb(191,191,191);"/>
    </g>
    <g transform="matrix(0.578182,0,0,0.790125,294.5,1441.13)">
        <rect x="208.18" y="295.276" width="747.44" height="112.419" style="fill:rgb(191,191,191);"/>
    </g>
    <g transform="matrix(1,0,0,0.790125,724.047,1307.89)">
        <rect x="208.18" y="295.276" width="747.44" height="112.419" style="fill:rgb(191,191,191);"/>
    </g>
    <g transform="matrix(0.578182,0,0,0.790125,294.5,1307.89)">
        <rect x="208.18" y="295.276" width="747.44" height="112.419" style="fill:rgb(191,191,191);"/>
    </g>
    <g transform="matrix(0.461818,0,0,0.790125,1341.46,328.447)">
        <rect x="208.18" y="295.276" width="747.44" height="112.419" style="fill:rgb(191,191,191);"/>
    </g>
    <g transform="matrix(1,0,0,0.790125,1229.42,61.9711)">
        <rect x="208.18" y="295.276" width="747.44" height="112.419" style="fill:rgb(93,93,93);"/>
    </g>
    <g transform="matrix(0.6157,0,0,0.790125,1453.04,2890.47)">
        <rect x="208.18" y="295.276" width="747.44" height="112.419" style="fill:rgb(191,191,191);"/>
    </g>
    <g transform="matrix(0.6157,0,0,0.790125,1453.04,2527.72)">
        <rect x="208.18" y="295.276" width="747.44" height="112.419" style="fill:rgb(191,191,191);"/>
    </g>
    <g transform="matrix(1,0,0,0.790125,1229.42,461.684)">
        <rect x="208.18" y="295.276" width="747.44" height="112.419" style="fill:rgb(191,191,191);"/>
    </g>
    <path d="M1597.98,2968.8C1639.5,2926.3 1689.13,2893.42 1743.04,2868.86C1788.16,2848.3 1946.38,2811.88 1922.82,2911.2C1911.22,2960.07 1871.31,3000.08 1830.41,3026.97C1817.37,3035.55 1796.19,3044.75 1786.31,3057.02C1784.12,3059.73 1798.43,3075.67 1799.8,3077.13C1826.27,3105.27 1881.14,3095.3 1913.05,3086.02C1917.31,3084.78 1921.55,3083.45 1925.75,3082.02C2024.63,3048.36 2084.38,2983.89 2130.63,2892.92" style="fill:none;stroke:rgb(93,93,93);stroke-width:42.13px;"/>
</svg>
