<svg version="1.0" xmlns="http://www.w3.org/2000/svg"
 width="265.000000pt" height="265.000000pt" viewBox="0 0 265.000000 265.000000"
 preserveAspectRatio="xMidYMid meet">

<g transform="translate(0.000000,265.000000) scale(0.100000,-0.100000)"
fill="#EEEEEE" stroke="none">
<path d="M1177 2240 c-474 -80 -812 -505 -784 -984 14 -243 111 -452 288 -622
90 -86 146 -124 253 -175 211 -99 453 -114 681 -42 424 134 702 565 645 1003
-30 233 -122 414 -290 573 -132 125 -278 202 -453 238 -96 20 -251 24 -340 9z
m372 -130 c229 -65 415 -220 523 -435 67 -131 98 -311 79 -458 -24 -184 -98
-341 -225 -474 -111 -117 -216 -182 -373 -229 -75 -23 -107 -27 -218 -28 -158
0 -229 16 -370 84 -119 58 -212 132 -288 232 -250 328 -231 767 46 1074 55 60
166 143 242 181 50 25 154 59 220 72 80 16 278 6 364 -19z"/>
<path d="M1299 2023 c-18 -21 -43 -60 -55 -88 -61 -133 -52 -260 27 -387 34
-56 31 -63 -27 -94 -30 -15 -38 -16 -42 -5 -2 7 -23 36 -46 64 -92 113 -181
153 -320 144 -74 -4 -166 -30 -166 -46 0 -14 63 -99 106 -143 68 -69 141 -102
236 -106 48 -3 95 1 127 11 37 11 53 12 60 3 28 -35 78 -215 106 -388 l6 -38
-41 0 c-30 0 -40 4 -40 16 0 35 -66 138 -117 183 -30 27 -84 63 -120 81 -70
34 -213 74 -297 83 l-48 5 6 -31 c18 -88 103 -203 196 -265 72 -48 163 -80
273 -96 l82 -11 3 -33 c3 -24 8 -32 23 -32 18 0 20 4 14 30 -6 29 -5 30 29 30
33 0 36 -2 36 -30 0 -23 4 -30 20 -30 16 0 20 7 20 30 0 28 3 30 36 30 35 0
36 -1 31 -30 -5 -25 -3 -30 13 -30 14 0 20 8 22 32 l3 33 80 11 c168 24 259
66 351 159 56 57 110 146 129 212 5 20 3 21 -37 17 -24 -3 -84 -14 -134 -25
-202 -44 -352 -153 -401 -290 -17 -47 -19 -49 -55 -49 l-37 0 5 38 c18 131 52
265 88 345 l24 55 53 -15 c80 -23 199 -14 268 21 93 48 225 205 190 227 -68
44 -244 50 -331 12 -57 -26 -128 -90 -165 -149 -16 -24 -31 -44 -36 -44 -9 0
-87 51 -87 57 0 3 9 18 20 33 12 16 33 55 47 87 23 49 27 72 28 148 0 81 -3
97 -33 159 -17 38 -45 83 -61 102 l-30 33 -32 -36z m80 -94 c34 -61 36 -69 36
-160 0 -90 -2 -100 -35 -165 -20 -38 -42 -69 -50 -69 -8 0 -30 30 -49 67 -42
83 -53 188 -27 263 21 64 65 137 79 132 6 -2 27 -32 46 -68z m-388 -324 c19
-10 49 -28 67 -42 38 -29 112 -119 112 -138 0 -18 -110 -39 -174 -32 -29 3
-76 17 -103 31 -52 26 -176 151 -170 170 12 36 204 43 268 11z m888 14 c28 -6
53 -15 56 -20 9 -14 -71 -113 -121 -148 -53 -39 -119 -61 -180 -61 -53 0 -144
20 -144 32 0 17 58 94 95 126 84 74 176 97 294 71z m-500 -180 c28 -18 51 -35
51 -38 0 -3 -13 -40 -29 -81 -16 -41 -37 -112 -47 -157 -9 -46 -20 -83 -24
-83 -4 0 -12 29 -19 65 -6 36 -25 102 -42 147 -16 46 -32 90 -35 98 -3 10 13
26 43 47 27 17 49 32 50 32 1 1 24 -13 52 -30z m-601 -174 c151 -31 281 -99
346 -179 31 -37 76 -116 76 -132 0 -8 -91 4 -165 23 -128 32 -249 123 -314
236 -44 78 -48 74 57 52z m1192 8 c0 -24 -71 -126 -121 -174 -80 -79 -181
-123 -331 -144 -57 -7 -60 2 -27 67 49 97 181 187 331 227 105 29 148 35 148
24z"/>
<path d="M1000 727 c30 -13 100 -51 155 -86 169 -104 193 -103 379 17 39 25
96 56 126 69 l55 23 -52 0 c-38 0 -79 -10 -145 -37 -85 -35 -101 -38 -188 -38
-87 0 -103 3 -187 38 -67 27 -107 37 -145 37 l-53 0 55 -23z"/>
</g>
</svg>
