<?xml version="1.0" encoding="UTF-8" standalone="no"?>
<!DOCTYPE svg PUBLIC "-//W3C//DTD SVG 1.1//EN" "http://www.w3.org/Graphics/SVG/1.1/DTD/svg11.dtd">
<svg width="100%" height="100%" viewBox="0 0 265 265" version="1.1" xmlns="http://www.w3.org/2000/svg" xmlns:xlink="http://www.w3.org/1999/xlink" xml:space="preserve" xmlns:serif="http://www.serif.com/" style="fill-rule:evenodd;clip-rule:evenodd;stroke-linejoin:round;stroke-miterlimit:2;">
    <g transform="matrix(0.1,0,0,-0.1,0,265)">
        <path d="M1177,2240C703,2160 365,1735 393,1256C407,1013 504,804 681,634C771,548 827,510 934,459C1145,360 1387,345 1615,417C2039,551 2317,982 2260,1420C2230,1653 2138,1834 1970,1993C1838,2118 1692,2195 1517,2231C1421,2251 1266,2255 1177,2240ZM1549,2110C1778,2045 1964,1890 2072,1675C2139,1544 2170,1364 2151,1217C2127,1033 2053,876 1926,743C1815,626 1710,561 1553,514C1478,491 1446,487 1335,486C1177,486 1106,502 965,570C846,628 753,702 677,802C427,1130 446,1569 723,1876C778,1936 889,2019 965,2057C1015,2082 1119,2116 1185,2129C1265,2145 1463,2135 1549,2110Z" style="fill:rgb(40,180,99);fill-rule:nonzero;"/>
        <path d="M1299,2023C1281,2002 1256,1963 1244,1935C1183,1802 1192,1675 1271,1548C1305,1492 1302,1485 1244,1454C1214,1439 1206,1438 1202,1449C1200,1456 1179,1485 1156,1513C1064,1626 975,1666 836,1657C762,1653 670,1627 670,1611C670,1597 733,1512 776,1468C844,1399 917,1366 1012,1362C1060,1359 1107,1363 1139,1373C1176,1384 1192,1385 1199,1376C1227,1341 1277,1161 1305,988L1311,950L1270,950C1240,950 1230,954 1230,966C1230,1001 1164,1104 1113,1149C1083,1176 1029,1212 993,1230C923,1264 780,1304 696,1313L648,1318L654,1287C672,1199 757,1084 850,1022C922,974 1013,942 1123,926L1205,915L1208,882C1211,858 1216,850 1231,850C1249,850 1251,854 1245,880C1239,909 1240,910 1274,910C1307,910 1310,908 1310,880C1310,857 1314,850 1330,850C1346,850 1350,857 1350,880C1350,908 1353,910 1386,910C1421,910 1422,909 1417,880C1412,855 1414,850 1430,850C1444,850 1450,858 1452,882L1455,915L1535,926C1703,950 1794,992 1886,1085C1942,1142 1996,1231 2015,1297C2020,1317 2018,1318 1978,1314C1954,1311 1894,1300 1844,1289C1642,1245 1492,1136 1443,999C1426,952 1424,950 1388,950L1351,950L1356,988C1374,1119 1408,1253 1444,1333L1468,1388L1521,1373C1601,1350 1720,1359 1789,1394C1882,1442 2014,1599 1979,1621C1911,1665 1735,1671 1648,1633C1591,1607 1520,1543 1483,1484C1467,1460 1452,1440 1447,1440C1438,1440 1360,1491 1360,1497C1360,1500 1369,1515 1380,1530C1392,1546 1413,1585 1427,1617C1450,1666 1454,1689 1455,1765C1455,1846 1452,1862 1422,1924C1405,1962 1377,2007 1361,2026L1331,2059L1299,2023ZM1379,1929C1413,1868 1415,1860 1415,1769C1415,1679 1413,1669 1380,1604C1360,1566 1338,1535 1330,1535C1322,1535 1300,1565 1281,1602C1239,1685 1228,1790 1254,1865C1275,1929 1319,2002 1333,1997C1339,1995 1360,1965 1379,1929ZM991,1605C1010,1595 1040,1577 1058,1563C1096,1534 1170,1444 1170,1425C1170,1407 1060,1386 996,1393C967,1396 920,1410 893,1424C841,1450 717,1575 723,1594C735,1630 927,1637 991,1605ZM1879,1619C1907,1613 1932,1604 1935,1599C1944,1585 1864,1486 1814,1451C1761,1412 1695,1390 1634,1390C1581,1390 1490,1410 1490,1422C1490,1439 1548,1516 1585,1548C1669,1622 1761,1645 1879,1619ZM1379,1439C1407,1421 1430,1404 1430,1401C1430,1398 1417,1361 1401,1320C1385,1279 1364,1208 1354,1163C1345,1117 1334,1080 1330,1080C1326,1080 1318,1109 1311,1145C1305,1181 1286,1247 1269,1292C1253,1338 1237,1382 1234,1390C1231,1400 1247,1416 1277,1437C1304,1454 1326,1469 1327,1469C1328,1470 1351,1456 1379,1439ZM778,1265C929,1234 1059,1166 1124,1086C1155,1049 1200,970 1200,954C1200,946 1109,958 1035,977C907,1009 786,1100 721,1213C677,1291 673,1287 778,1265ZM1970,1273C1970,1249 1899,1147 1849,1099C1769,1020 1668,976 1518,955C1461,948 1458,957 1491,1022C1540,1119 1672,1209 1822,1249C1927,1278 1970,1284 1970,1273Z" style="fill:rgb(40,180,99);fill-rule:nonzero;"/>
        <path d="M1000,727C1030,714 1100,676 1155,641C1324,537 1348,538 1534,658C1573,683 1630,714 1660,727L1715,750L1663,750C1625,750 1584,740 1518,713C1433,678 1417,675 1330,675C1243,675 1227,678 1143,713C1076,740 1036,750 998,750L945,750L1000,727Z" style="fill:rgb(40,180,99);fill-rule:nonzero;"/>
    </g>
</svg>
