<?xml version="1.0" encoding="UTF-8" standalone="no"?>
<!DOCTYPE svg PUBLIC "-//W3C//DTD SVG 1.1//EN" "http://www.w3.org/Graphics/SVG/1.1/DTD/svg11.dtd">
<svg width="100%" height="100%" viewBox="0 0 952 586" version="1.1" xmlns="http://www.w3.org/2000/svg" xmlns:xlink="http://www.w3.org/1999/xlink" xml:space="preserve" xmlns:serif="http://www.serif.com/" style="fill-rule:evenodd;clip-rule:evenodd;stroke-linejoin:round;stroke-miterlimit:2;">
    <path d="M695.76,583L171.76,583L190.76,212L272.76,212L348.374,265L714.76,265L695.76,583Z" style="fill:rgb(229,229,229);fill-rule:nonzero;"/>
    <g transform="matrix(1,0,0,1,-124,-157)">
        <path d="M691.489,626.863L388.624,502.135C386.434,501.23 385.374,498.686 386.274,496.494L523.508,163.262C524.413,161.072 526.957,160.012 529.149,160.912L832.014,285.64C834.204,286.545 835.264,289.089 834.364,291.281L697.13,624.513C696.225,626.703 693.681,627.763 691.489,626.863Z" style="fill:white;fill-rule:nonzero;"/>
    </g>
    <g transform="matrix(1,0,0,1,-124,-157)">
        <path d="M691.489,626.863L388.624,502.135C386.434,501.23 385.374,498.686 386.274,496.494L523.508,163.262C524.413,161.072 526.957,160.012 529.149,160.912L832.014,285.64C834.204,286.545 835.264,289.089 834.364,291.281L697.13,624.513C696.225,626.703 693.681,627.763 691.489,626.863ZM528.491,162.51C527.176,161.971 525.649,162.607 525.106,163.921L387.872,497.152C387.332,498.467 387.968,499.994 389.282,500.536L692.147,625.265C693.462,625.805 694.989,625.169 695.532,623.855L832.766,290.623C833.306,289.308 832.67,287.781 831.356,287.239L528.491,162.51Z" style="fill:rgb(63,61,86);fill-rule:nonzero;"/>
    </g>
    <g transform="matrix(1,0,0,1,-124,-157)">
        <path d="M614.031,325.867L538.914,294.931C536.724,294.027 535.664,291.482 536.564,289.29L567.499,214.173C568.404,211.983 570.949,210.923 573.141,211.823L648.257,242.758C650.447,243.663 651.507,246.208 650.607,248.4L619.672,323.516C618.767,325.706 616.223,326.766 614.031,325.867ZM572.482,213.422C571.167,212.882 569.64,213.518 569.098,214.832L538.162,289.948C537.622,291.264 538.258,292.79 539.573,293.333L614.689,324.268C616.005,324.808 617.531,324.172 618.074,322.858L649.009,247.741C649.549,246.426 648.913,244.9 647.599,244.357L572.482,213.422Z" style="fill:rgb(242,242,242);fill-rule:nonzero;"/>
    </g>
    <g transform="matrix(1,0,0,1,-124,-157)">
        <path d="M588.67,326.171L513.554,295.236C511.583,294.421 510.629,292.131 511.438,290.159L542.374,215.042C543.188,213.071 545.478,212.117 547.451,212.927L622.568,243.862C624.539,244.676 625.493,246.966 624.683,248.939L593.747,324.056C592.933,326.027 590.643,326.981 588.67,326.171Z" style="fill:rgb(94,214,179);fill-rule:nonzero;"/>
    </g>
    <g transform="matrix(1,0,0,1,-124,-157)">
        <path d="M733.355,428.75L498.415,331.995C496.961,331.396 496.007,329.971 496.007,328.399C496.007,326.265 497.762,324.51 499.896,324.51C500.404,324.51 500.907,324.609 501.377,324.803L736.317,421.558C737.771,422.156 738.725,423.581 738.725,425.154C738.725,427.287 736.97,429.043 734.836,429.043C734.328,429.043 733.825,428.943 733.355,428.75L733.355,428.75Z" style="fill:rgb(204,204,204);fill-rule:nonzero;"/>
    </g>
    <g transform="matrix(1,0,0,1,-124,-157)">
        <path d="M666.416,430.156L488.213,356.767C486.759,356.169 485.805,354.744 485.805,353.171C485.805,351.038 487.56,349.282 489.694,349.282C490.202,349.282 490.705,349.382 491.175,349.575L669.378,422.964C670.832,423.563 671.786,424.988 671.786,426.56C671.786,428.694 670.03,430.449 667.897,430.449C667.389,430.449 666.886,430.35 666.416,430.156L666.416,430.156Z" style="fill:rgb(204,204,204);fill-rule:nonzero;"/>
    </g>
    <g transform="matrix(1,0,0,1,-124,-157)">
        <path d="M770.073,337.321L666.188,294.539C664.734,293.94 663.78,292.515 663.78,290.943C663.78,288.809 665.536,287.054 667.669,287.054C668.177,287.054 668.68,287.153 669.15,287.347L773.035,330.129C774.489,330.728 775.443,332.153 775.443,333.725C775.443,335.859 773.687,337.614 771.554,337.614C771.046,337.614 770.543,337.515 770.073,337.321L770.073,337.321Z" style="fill:rgb(204,204,204);fill-rule:nonzero;"/>
    </g>
    <g transform="matrix(1,0,0,1,-124,-157)">
        <path d="M733.945,351.417L655.986,319.311C654.532,318.712 653.578,317.288 653.578,315.715C653.578,313.582 655.334,311.826 657.467,311.826C657.975,311.826 658.478,311.926 658.948,312.119L736.907,344.225C738.361,344.824 739.315,346.248 739.315,347.821C739.315,349.954 737.559,351.71 735.426,351.71C734.918,351.71 734.415,351.61 733.945,351.417L733.945,351.417Z" style="fill:rgb(204,204,204);fill-rule:nonzero;"/>
    </g>
    <g transform="matrix(1,0,0,1,-124,-157)">
        <path d="M712.951,478.295L478.011,381.54C476.557,380.941 475.603,379.517 475.603,377.944C475.603,375.811 477.358,374.055 479.492,374.055C480,374.055 480.503,374.155 480.973,374.348L715.913,471.103C717.367,471.702 718.321,473.126 718.321,474.699C718.321,476.832 716.565,478.588 714.432,478.588C713.924,478.588 713.421,478.488 712.951,478.295L712.951,478.295Z" style="fill:rgb(204,204,204);fill-rule:nonzero;"/>
    </g>
    <g transform="matrix(1,0,0,1,-124,-157)">
        <path d="M646.012,479.701L467.809,406.313C466.355,405.714 465.401,404.289 465.401,402.717C465.401,400.583 467.156,398.828 469.29,398.828C469.798,398.828 470.301,398.927 470.771,399.121L648.974,472.509C650.428,473.108 651.382,474.533 651.382,476.105C651.382,478.239 649.626,479.994 647.493,479.994C646.985,479.994 646.481,479.895 646.012,479.701Z" style="fill:rgb(204,204,204);fill-rule:nonzero;"/>
    </g>
    <g transform="matrix(1,0,0,1,-124,-157)">
        <path d="M692.547,527.84L457.607,431.085C456.153,430.486 455.199,429.062 455.199,427.489C455.199,425.356 456.954,423.6 459.088,423.6C459.596,423.6 460.099,423.7 460.569,423.893L695.509,520.648C696.963,521.247 697.917,522.671 697.917,524.244C697.917,526.377 696.161,528.133 694.028,528.133C693.52,528.133 693.017,528.033 692.547,527.84Z" style="fill:rgb(204,204,204);fill-rule:nonzero;"/>
    </g>
    <g transform="matrix(1,0,0,1,-124,-157)">
        <path d="M682.345,552.613L447.405,455.858C445.951,455.259 444.997,453.834 444.997,452.262C444.997,450.128 446.752,448.373 448.886,448.373C449.394,448.373 449.897,448.472 450.367,448.666L685.307,545.421C686.761,546.019 687.715,547.444 687.715,549.017C687.715,551.15 685.959,552.906 683.826,552.906C683.318,552.906 682.815,552.806 682.345,552.613L682.345,552.613Z" style="fill:rgb(204,204,204);fill-rule:nonzero;"/>
    </g>
    <g transform="matrix(1,0,0,1,-124,-157)">
        <path d="M567.73,550.772C572.432,551.021 577.147,550.877 581.825,550.342C586.037,549.85 590.425,549.172 594.118,546.957C597.354,545.111 599.52,541.824 599.939,538.122C600.272,534.566 598.252,531.18 594.964,529.785C591.647,528.389 587.818,528.925 585.013,531.179C582.03,533.769 580.39,537.585 580.563,541.531C580.757,549.536 587.09,557.441 594.122,560.77C602.043,564.52 612.86,561.333 614.888,552.098C615.31,550.177 612.694,549.51 611.6,550.744C610.146,552.348 609.339,554.438 609.339,556.603C609.339,561.387 613.276,565.324 618.06,565.324C620.158,565.324 622.187,564.567 623.773,563.192L620.828,561.98C622.568,569.269 628.083,575.094 635.266,577.228C637.009,577.751 638.818,578.027 640.638,578.047C642.849,578.053 645.122,579.163 647.237,579.853L662.481,584.819C664.724,585.549 666.146,582.146 663.886,581.409L650.08,576.911C647.779,576.162 645.484,575.392 643.176,574.662C641.527,574.141 639.721,574.423 638,574.117C631.438,572.874 626.159,567.936 624.481,561.471C624.338,560.569 623.552,559.899 622.639,559.899C622.243,559.899 621.857,560.025 621.537,560.259C620.599,561.152 619.352,561.65 618.057,561.65C615.288,561.65 613.009,559.371 613.009,556.602C613.009,555.25 613.552,553.953 614.515,553.005L611.227,551.651C609.919,557.608 602.651,559.844 597.414,558.121C591.556,556.195 586.522,550.588 584.775,544.716C583.831,541.865 584.116,538.746 585.561,536.114C586.866,533.684 589.592,532.348 592.312,532.807C594.765,533.154 596.526,535.414 596.262,537.878C595.866,540.599 594.137,542.951 591.657,544.142C588.361,545.911 584.413,546.352 580.751,546.753C576.577,547.208 572.372,547.327 568.178,547.111C565.824,546.992 565.351,550.653 567.73,550.773L567.73,550.772Z" style="fill:rgb(108,99,255);fill-rule:nonzero;"/>
    </g>
    <path d="M695.76,290L695.76,583L171.76,583L171.76,237L253.76,237L329.37,290L695.76,290Z" style="fill:rgb(255,200,108);fill-rule:nonzero;"/>
    <rect x="203.76" y="528" width="214" height="17" style="fill:rgb(54,61,86);"/>
    <rect x="203.76" y="495" width="107" height="17" style="fill:rgb(38,60,114);"/>
    <g transform="matrix(1,0,0,1,-124,-157)">
        <path d="M820.76,741L294.76,741L294.76,393L378.075,393L453.69,446L820.76,446L820.76,741ZM296.76,739L818.76,739L818.76,448L453.058,448L377.444,395L296.76,395L296.76,739Z" style="fill:rgb(63,61,86);fill-rule:nonzero;"/>
    </g>
    <g transform="matrix(1,0,0,1,-124,-157)">
        <path d="M1075,743L125,743C124.451,743 124,742.549 124,742C124,741.451 124.451,741 125,741L1075,741C1075.55,741 1076,741.451 1076,742C1076,742.549 1075.55,743 1075,743Z" style="fill:rgb(203,203,203);fill-rule:nonzero;"/>
    </g>
</svg>
